<svg width="569" height="169" fill="none" xmlns="http://www.w3.org/2000/svg"><g clip-path="url(#clip0)"><path d="M57.478 114.944c15.246 0 27.605-12.397 27.605-27.69 0-15.292-12.36-27.689-27.605-27.689-15.245 0-27.604 12.397-27.604 27.69 0 15.292 12.359 27.689 27.604 27.689zm469.886 30.983c17.874 0 32.363-14.535 32.363-32.464S545.238 81 527.364 81 495 95.534 495 113.463c0 17.929 14.49 32.464 32.364 32.464z" stroke="#DADCEE" stroke-width=".5" stroke-miterlimit="10" stroke-dasharray="3 3"/><path d="M36.464 142.045c17.874 0 32.364-14.534 32.364-32.463 0-17.93-14.49-32.463-32.364-32.463C18.59 77.119 4.1 91.653 4.1 109.582c0 17.929 14.49 32.463 32.364 32.463z" stroke="#DADCEE" stroke-width=".5" stroke-miterlimit="10" stroke-dasharray="3 3"/><path d="M165.626 119.424v-.955c0-.147.146-.294.293-.294h3.734c.146 0 .293.147.293.294v.955m-5.199 4.333v-4.039c0-.147.147-.294.293-.294h5.565c.146 0 .293.147.293.294v3.966" stroke="#DADCEE" stroke-width=".5" stroke-miterlimit="10"/><path d="M170.458 123.977v4.04h-5.345v-4.04a.315.315 0 00-.293-.293h-1.83a.315.315 0 00-.293.293v44.656h10.105v-44.656c0-.146-.147-.293-.293-.293h-1.758c-.146.073-.293.147-.293.293z" stroke="#DADCEE" stroke-width=".5" stroke-miterlimit="10"/><path d="M170.458 132.277v-1.689c0-.074-.073-.221-.219-.221h-4.979c-.074 0-.22.074-.22.221v1.689c0 .147-.073.22-.22.22h-.439c-.073 0-.22.074-.22.22v35.842h7.03v-35.842c0-.073-.074-.22-.22-.22h-.439s-.074-.073-.074-.22zm-5.564 8.813h5.784m-4.833 27.543V143m1.318 25.633V143m1.245 25.633V143m1.318 25.633V143m-3.807-3.893v-5.582m1.244 5.582v-5.582m1.318 5.582v-5.582m1.245 5.582v-5.582M4.76 157.542l-1.831-13.44c0-.147.073-.221.146-.294 3.002-1.542 5.053-1.469 6.37-1.028 1.611.514 2.27 1.469 4.687 2.864.585.294 1.098.588 1.684.808m16.108-2.938c.366 0 .733 0 1.099-.073 3.66-.074 9.079 1.248 10.397 1.616.146.073.293.22.22.367l-3.002 11.531m5.564 9.181v2.497H34.926m.294-6.023l3.001-.587" stroke="#DADCEE" stroke-width=".5" stroke-miterlimit="10"/><path d="M39.832 166.944v1.689h-9.299m-16.255-16.599v-.881c0-2.791 1.684-5.362 4.54-8.52 3.807-4.187 8.127-4.774 9.592-4.921v17.333m-26.872 6.096a9.083 9.083 0 00-1.245-2.423c-.073-.074 0-.147.074-.147 1.684-.661 4.54-1.396 8.127-1.102l1.757.22" stroke="#DADCEE" stroke-width=".5" stroke-miterlimit="10"/><path d="M1.392 167.384s.439-1.983.073-3.305a5.985 5.985 0 00-1.245-2.277c-.073-.073-.073-.22.073-.294a19.824 19.824 0 017.396-.881c.878.074 1.757.22 2.489.367m.586 6.317v-2.718m22.625 1.763v.955m-5.052-12.192l.073-17.334c.659 1.91 1.977 4.701 4.32 6.39 2.05 1.396 4.393 2.057 5.199 2.277.22.073.292.22.22.441l-3.003 11.163" stroke="#DADCEE" stroke-width=".5" stroke-miterlimit="10"/><path d="M34.121 166.136c-.073.146-.147.22-.293.22a115.803 115.803 0 00-10.031-1.249c-7.322-.661-12.667-.514-12.814-.514h-.146c-.073 0-.147-.073-.22-.22-.293-1.689-.44-3.599-.513-5.729 0-2.497.22-4.7.513-6.537 0-.147.146-.22.293-.22 4.613.147 10.69.955 17.427 3.305 2.416.881 7.029 3.085 7.98 3.526.147.073.147.22.147.293l-2.343 7.125zm4.466-4.701l-.805-2.791c0-.073 0-.147.073-.22a8.946 8.946 0 013.442-1.469 9.188 9.188 0 014.1.073c.073 0 .147.074.147.147l.292 4.26m-12.447 7.198H1.61c-.147 0-.22-.074-.22-.221v-.881c0-.147.073-.22.22-.22h31.778v1.322z" stroke="#DADCEE" stroke-width=".5" stroke-miterlimit="10"/><path d="M47.008 165.768c0 .074 0 .147-.073.221-.806.22-1.758.44-2.71.661-2.05.367-3.953.44-5.491.367-.147 0-.293-.147-.293-.294-.073-1.689-.073-3.378-.146-5.068 0-.073.073-.147.146-.147.659-.073 1.538-.22 2.49-.293.512-.074 1.171-.074 1.977-.074 1.098 0 2.123.147 3.002.367.146 0 .292.147.292.294 0 .588.074 1.249.22 1.91.073.808.293 1.469.586 2.056zM13.4 164.446v2.865m2.635-2.865v2.865m2.636-2.644v2.644m2.636-2.497v2.497m2.636-2.277v2.277m2.637-1.983v1.983m2.635-1.69v1.69m2.636-1.322v1.322m8.859-.367v1.689m.806-1.689v1.689m.732-1.689v1.689m.732-1.91v1.91m.733-1.91v1.91m.805-2.057v2.057m.732-2.277v2.277m40.638-9.328v-7.198h11.13m0 0h-11.13l3.075-2.203c.147-.073.293-.147.44-.147h7.615m9.592 0h7.615c.146 0 .292.074.439.147l3.075 2.203H106.61" stroke="#DADCEE" stroke-width=".5" stroke-miterlimit="10"/><path d="M76.076 168.633v-9.034c0-.22.147-.367.367-.367h18.744m13.253.073h18.745c.219 0 .366.147.366.367v9.034m-30.533-10.723v-21.887c0-.22.22-.441.439-.441h8.713c.22 0 .44.221.44.441v21.887" stroke="#DADCEE" stroke-width=".5" stroke-miterlimit="10"/><path d="M98.555 157.983v-22.328h6.517v22.328m-6.517-22.328v-7.638c0-.147.147-.294.293-.294h5.858c.146 0 .293.147.293.294v7.638m3.441 25.707h19.916m-53.158 0h19.916m4.1-33.639v-2.056c0-.147.074-.221.22-.221h4.686c.147 0 .22.074.22.221v2.056" stroke="#DADCEE" stroke-width=".5" stroke-miterlimit="10"/><path d="M95.114 168.633v-9.842c0-.514.44-.881.879-.881h11.495c.513 0 .879.44.879.881v9.842m-8.86-43.187c0-1.689 1.025-3.084 2.27-3.084s2.27 1.395 2.27 3.084m-2.27-5.875v2.791" stroke="#DADCEE" stroke-width=".5" stroke-miterlimit="10"/><path d="M81.202 163.785v3.012h-.879v-3.012h.879zm.366-.367h-1.61v3.746h1.61v-3.746zm2.856.367v3.012h-.879v-3.012h.879zm.366-.367h-1.611v3.746h1.61v-3.746zm2.929.367v3.012h-.879v-3.012h.879zm.366-.367h-1.611v3.746h1.61v-3.746zm2.855.367v3.012h-.878v-3.012h.878zm.367-.367h-1.611v3.746h1.61v-3.746zm22.185.367v3.012h-.878v-3.012h.878zm.367-.367h-1.611v3.746h1.611v-3.746zm2.855.367v3.012h-.879v-3.012h.879zm.366-.367h-1.611v3.746h1.611v-3.746zm2.856.367v3.012h-.879v-3.012h.879zm.366-.367h-1.611v3.746h1.611v-3.746zm2.929.367v3.012h-.879v-3.012h.879zm.366-.367h-1.611v3.746h1.611v-3.746z" fill="#DADCEE"/><path d="M100.166 133.966c-.293 0-.512-.147-.512-.441v-3.231c0-.221.22-.441.512-.441.293 0 .513.147.513.441v3.231c-.073.294-.293.441-.513.441zm1.611 0c-.293 0-.512-.147-.512-.441v-3.231c0-.221.219-.441.512-.441.293 0 .513.147.513.441v3.231c-.074.294-.22.441-.513.441zm1.611 0c-.293 0-.513-.147-.513-.441v-3.231c0-.221.22-.441.513-.441.293 0 .512.147.512.441v3.231c0 .294-.219.441-.512.441zm-6.956 34.593v-7.124c0-.367.22-.808.586-.955.146-.073.293-.073.439-.073.146 0 .293 0 .366.073.366.147.66.514.66.955v7.124m1.903-8.152c.146 0 .293 0 .366.073.366.147.659.514.659.955v7.124m-2.051 0v-7.124c0-.367.22-.808.587-.955.146-.073.292-.073.439-.073m2.929 0c.146 0 .293 0 .366.073.366.147.659.514.659.955v7.124m-2.05 0v-7.124c0-.367.219-.808.585-.955.147-.073.293-.073.44-.073m2.782 0c.146 0 .293 0 .366.073.366.147.659.514.659.955v7.124m-2.123 0v-7.124c0-.367.219-.808.586-.955.146-.073.292-.073.439-.073m11.569-1.102v-7.198h-11.13m145.197 7.565c3.68 0 6.664-2.795 6.664-6.243 0-3.448-2.984-6.243-6.664-6.243-3.68 0-6.663 2.795-6.663 6.243 0 3.448 2.983 6.243 6.663 6.243zm-4.173-17.847a.806.806 0 00.805-.808.806.806 0 10-1.611 0c0 .446.361.808.806.808zm8.274 24.898a.806.806 0 00.805-.808.806.806 0 10-1.611 0c0 .446.361.808.806.808zm-2.124-7.344l1.904 5.802m-3.588-10.797l1.538 4.701m-3.734-11.238l1.537 4.628m-3.587-10.724l1.903 5.729" stroke="#DADCEE" stroke-width=".5" stroke-miterlimit="10"/><path d="M251.66 154.458c.607 0 1.099-.461 1.099-1.029 0-.568-.492-1.028-1.099-1.028-.606 0-1.098.46-1.098 1.028 0 .568.492 1.029 1.098 1.029zm13.253-4.04a.807.807 0 000-1.616.807.807 0 000 1.616zm-26.579 7.712a.807.807 0 000-1.616.806.806 0 00-.805.808c0 .446.36.808.805.808zm6.956-2.791l-6.224 1.763m11.569-3.379l-5.052 1.469m1.904-13.367a.806.806 0 00.805-.808.806.806 0 10-1.611 0c0 .446.361.808.806.808zm6.15 17.554l1.904 5.802m-3.588-10.797l1.538 4.701m-3.734-11.238l1.537 4.628m-3.587-10.724l1.903 5.729" stroke="#DADCEE" stroke-width=".5" stroke-miterlimit="10"/><path d="M264.913 150.418a.807.807 0 000-1.616.807.807 0 000 1.616zm-26.579 7.712a.807.807 0 000-1.616.806.806 0 00-.805.808c0 .446.36.808.805.808zm6.956-2.791l-6.224 1.763m11.569-3.379l-5.052 1.469m12.082-3.525l-4.979 1.469m11.495-3.379l-6.15 1.836m5.931 8.74a.806.806 0 10-.003-1.613.806.806 0 00.003 1.613zm-24.676-12.118a.807.807 0 000-1.616.806.806 0 00-.805.808c0 .446.36.808.805.808zm6.444 2.35l-5.712-2.791m10.69 5.215l-4.686-2.277m11.203 5.508l-4.613-2.276m10.691 5.214l-5.785-2.791m-12.374 9.401a.806.806 0 00.805-.808.806.806 0 10-1.611 0c0 .447.361.808.806.808zm12.96-22.988a.806.806 0 00.805-.808.806.806 0 10-1.611 0c0 .446.361.808.806.808zm-3.368 5.141l3.002-5.362m-5.638 9.989l2.489-4.333m-5.857 10.503l2.416-4.334m-5.638 9.989l3.002-5.362m13.985-12.853a.807.807 0 000-1.616.806.806 0 00-.805.808c0 .446.36.808.805.808zM240.75 162.39a.807.807 0 000-1.616.807.807 0 000 1.616zm5.638-5.068l-5.052 3.746m9.446-6.978l-4.101 3.012m9.885-7.345l-4.1 3.085" stroke="#DADCEE" stroke-width=".5" stroke-miterlimit="10"/><path d="M261.911 145.791l-5.052 3.746v.073m3.442 14.836a.807.807 0 000-1.616.807.807 0 000 1.616zm-17.354-20.344a.807.807 0 000-1.616.806.806 0 00-.805.808c0 .446.36.808.805.808zm4.54 4.48l-4.027-4.701m7.468 8.814l-3.221-3.819m7.834 9.18l-3.222-3.819" stroke="#DADCEE" stroke-width=".5" stroke-miterlimit="10"/><path d="M259.788 163.051l-3.954-4.701h-.073m9.738-3.084a.807.807 0 000-1.616.806.806 0 00-.805.808c0 .446.36.808.805.808zm-27.751-1.984a.806.806 0 100-1.613.806.806 0 000 1.613zm7.249-.293l-6.443-.441m12.008.808l-5.199-.367m12.594.955l-.219-.074-5.052-.367m12.081.881l-6.444-.44m-7.761 13.293a.806.806 0 00.805-.808.806.806 0 00-.805-.808.806.806 0 00-.805.808c0 .447.36.808.805.808zm2.123-25.926a.807.807 0 000-1.616.807.807 0 000 1.616zm-.512 5.949l.44-6.023m-.879 11.238l.366-4.921m-.952 11.825l.367-4.921m-.88 11.237l.514-6.023" stroke="#DADCEE" stroke-width=".5" stroke-miterlimit="10"/><path d="M251.66 165.401c7.077 0 12.814-5.36 12.814-11.972 0-6.611-5.737-11.971-12.814-11.971-7.076 0-12.813 5.36-12.813 11.971 0 6.612 5.737 11.972 12.813 11.972z" stroke="#DADCEE" stroke-width=".5" stroke-miterlimit="10"/><path d="M251.66 161.435c4.732 0 8.567-3.584 8.567-8.006 0-4.421-3.835-8.005-8.567-8.005-4.731 0-8.566 3.584-8.566 8.005 0 4.422 3.835 8.006 8.566 8.006zm-.292-6.977l-7.982 14.175m16.548 0l-8.054-14.175" stroke="#DADCEE" stroke-width=".5" stroke-miterlimit="10"/><path d="M228.376 168.559v-22.327m1.318 0v22.401" stroke="#DADCEE" stroke-width=".5" stroke-miterlimit="10" stroke-linejoin="round"/><path d="M229.767 103.412l-.219 1.763c0 .074-.074.147-.147.147h-.659c-.073 0-.146-.073-.146-.147l-.22-1.763c0-.073 0-.073.073-.146l.586-.294h.147l.585.294c-.073 0 0 .073 0 .146zm4.686 11.091h-10.836c-.513 0-.952-.294-1.245-.735-.073-.147 0-.22.146-.22h12.96c.147 0 .22.147.147.22-.22.441-.659.735-1.172.735z" stroke="#DADCEE" stroke-width=".5" stroke-miterlimit="10"/><path d="M234.453 114.503h-10.836c-.513 0-.952-.294-1.245-.735-.073-.147 0-.22.146-.22h12.96c.147 0 .22.147.147.22-.22.441-.659.735-1.172.735zm-3.807-7.271l.146-1.249c0-.22-.146-.367-.366-.367h-2.855c-.22 0-.366.22-.366.367l.146 1.249h3.295z" stroke="#DADCEE" stroke-width=".5" stroke-miterlimit="10"/><path d="M221.493 109.729c-.146 0-.292-.221-.146-.367 1.098-1.176 4.1-1.983 7.688-1.983s6.59.807 7.688 1.983c.147.146 0 .367-.146.367h-15.084z" stroke="#DADCEE" stroke-width=".5" stroke-miterlimit="10" stroke-linejoin="round"/><path d="M229.767 103.412l-.219 1.763c0 .074-.074.147-.147.147h-.659c-.073 0-.146-.073-.146-.147l-.22-1.763c0-.073 0-.073.073-.146l.586-.294h.147l.585.294c-.073 0 0 .073 0 .146z" stroke="#DADCEE" stroke-width=".5" stroke-miterlimit="10"/><path d="M229.035 97.61v5.288" stroke="#DADCEE" stroke-width=".5" stroke-miterlimit="10" stroke-linecap="round"/><path d="M231.817 114.503c-.732 3.892-1.903 12.339-2.489 16.672-.073.294-.439.294-.513 0-.585-4.26-1.757-12.78-2.489-16.672m10.617 53.616c-3.222-7.859-5.858-18.509-6.297-27.322-.439-8.887.513-17.921 2.929-26.294m-9.153 53.616c2.124-5.215 3.368-17.921 4.32-24.752.073-.294.439-.294.513 0 1.025 6.904 2.562 19.537 4.686 24.752m-9.372-53.616c2.343 8.373 3.368 17.407 2.928 26.294-.439 8.813-3.075 19.463-6.297 27.322m7.176-40.029v-13.44m1.318 0v13" stroke="#DADCEE" stroke-width=".5" stroke-miterlimit="10" stroke-linejoin="round"/><path d="M227.79 116.78h2.563m-2.563 1.983h2.563m-2.563-.955h2.563" stroke="#DADCEE" stroke-width=".5" stroke-miterlimit="10" stroke-linecap="round"/><path d="M222.592 111.271l.146.661.22.882c.073.146.219.293.366.293H234.6c.146 0 .366-.147.366-.293l.22-.882.146-.661.147-.808c.073-.22-.074-.367-.293-.367h-12.594c-.22 0-.366.147-.293.367l.293.808zm-25.335 57.141v-21.813c0-5.729-4.613-10.87-10.251-10.87-5.711 0-10.251 5.141-10.251 10.87v22.034" stroke="#DADCEE" stroke-width=".5" stroke-miterlimit="10"/><path d="M176.829 168.633v-22.034c0-2.791 2.855-4.994 6.37-4.994s6.37 2.276 6.37 4.994v22.034" stroke="#DADCEE" stroke-width=".5" stroke-miterlimit="10"/><path d="M189.496 168.633v-22.475c0-2.791 1.757-4.627 3.881-4.627 2.123 0 3.88 1.763 3.88 4.627v22.181" stroke="#DADCEE" stroke-width=".5" stroke-miterlimit="10"/><path d="M183.272 141.605c0-2.718 2.197-4.554 3.222-5.582.293-.294.805-.294 1.025 0 1.025 1.101 3.222 3.672 3.222 6.316" stroke="#DADCEE" stroke-width=".5" stroke-miterlimit="10" stroke-linecap="round" stroke-linejoin="round"/><path d="M192.059 137.198l.512 1.762-2.05 1.763h-3.441l-2.71-2.13 4.687-.808-1.977 3.085" stroke="#DADCEE" stroke-width=".5" stroke-miterlimit="10" stroke-linejoin="round"/><path d="M192.644 139.107l-3.661-1.248 1.391-1.396m-5.93 5.142l2.782-1.029m.879 2.644l-1.025-2.497m3.587.294l-2.562 2.35" stroke="#DADCEE" stroke-width=".5" stroke-miterlimit="10" stroke-linejoin="round"/><path d="M190.667 140.87l2.563.588-.659-2.498 2.124.441-1.392 2.277m-11.056-4.701l2.123 1.396-4.832 1.028 2.27.661 2.416-1.542m-2.416 1.542l-4.613 3.379 4.613-3.379zm1.391 1.543l-1.391-1.543" stroke="#DADCEE" stroke-width=".5" stroke-miterlimit="10" stroke-linejoin="round"/><path d="M207.508 168.339v-27.028c0-7.051-4.466-13.441-9.958-13.441-5.491 0-9.958 6.316-9.958 13.441v27.322" stroke="#DADCEE" stroke-width=".5" stroke-miterlimit="10"/><path d="M187.739 168.633v-27.249a6.149 6.149 0 016.15-6.169c3.368 0 6.151 2.791 6.151 6.169v27.249" stroke="#DADCEE" stroke-width=".5" stroke-miterlimit="10"/><path d="M199.967 168.633V140.87c0-3.452 1.684-5.655 3.734-5.655s3.734 2.203 3.734 5.655v27.469" stroke="#DADCEE" stroke-width=".5" stroke-miterlimit="10"/><path d="M193.962 135.141c0-3.305 2.124-5.582 3.149-6.904.293-.367.732-.367 1.025 0 1.025 1.322 3.149 4.554 3.149 7.859" stroke="#DADCEE" stroke-width=".5" stroke-miterlimit="10" stroke-linecap="round" stroke-linejoin="round"/><path d="M202.529 129.78l.44 2.13-1.977 2.13h-3.295l-2.71-2.645 4.613-.954-1.977 3.819" stroke="#DADCEE" stroke-width=".5" stroke-miterlimit="10" stroke-linejoin="round"/><path d="M203.042 132.056l-3.588-1.542 1.391-1.689m-5.711 6.316l2.709-1.248m.805 3.231l-.951-3.084m3.441.367l-2.49 2.938" stroke="#DADCEE" stroke-width=".5" stroke-miterlimit="10" stroke-linejoin="round"/><path d="M201.138 134.26l2.49.734-.659-3.084 2.05.514-1.318 2.864m-10.764-5.876l2.124 1.763-4.76 1.249 2.197.881 2.343-1.983m-2.269 1.983l-4.467 4.113 4.467-4.113zm1.317 1.836l-1.318-1.836" stroke="#DADCEE" stroke-width=".5" stroke-miterlimit="10" stroke-linejoin="round"/><path d="M218.418 168.412v-19.536c0-5.142-4.173-9.695-9.226-9.695-5.125 0-9.226 4.627-9.226 9.695v19.757" stroke="#DADCEE" stroke-width=".5" stroke-miterlimit="10"/><path d="M200.04 168.633v-19.757c0-2.497 2.563-4.481 5.711-4.481 3.149 0 5.711 1.984 5.711 4.481v19.757" stroke="#DADCEE" stroke-width=".5" stroke-miterlimit="10"/><path d="M211.389 168.633v-20.125c0-2.497 1.538-4.113 3.515-4.113 1.976 0 3.514 1.616 3.514 4.113v19.904" stroke="#DADCEE" stroke-width=".5" stroke-miterlimit="10"/><path d="M205.824 144.395c0-2.423 1.977-4.039 2.929-4.994.22-.22.732-.22.952 0 .952.955 2.929 3.305 2.929 5.655" stroke="#DADCEE" stroke-width=".5" stroke-miterlimit="10" stroke-linecap="round" stroke-linejoin="round"/><path d="M213.732 140.503l.439 1.542-1.83 1.616h-3.075l-2.49-1.983 4.247-.661-1.831 2.717" stroke="#DADCEE" stroke-width=".5" stroke-miterlimit="10" stroke-linejoin="round"/><path d="M214.245 142.192l-3.295-1.102 1.244-1.248m-5.345 4.553l2.563-.881m.732 2.35l-.878-2.203m3.148.22l-2.27 2.13" stroke="#DADCEE" stroke-width=".5" stroke-miterlimit="10" stroke-linejoin="round"/><path d="M212.487 143.734l2.27.588-.586-2.277 1.904.367-1.245 2.13m-9.958-4.26l1.977 1.249-4.393.881 2.05.661 2.124-1.468m-2.123 1.468l-4.174 3.012 4.174-3.012zm1.244 1.322l-1.245-1.322" stroke="#DADCEE" stroke-width=".5" stroke-miterlimit="10" stroke-linejoin="round"/><path d="M374.379 139.034v17.7h-5.419v-17.7m0-1.689v-1.837c0-.073.074-.22.147-.22h2.123m.806.074h2.196c.073 0 .147.073.147.22v1.836" stroke="#DADCEE" stroke-width=".5" stroke-miterlimit="10"/><path d="M374.964 139.034h-6.663c-.073 0-.146-.074-.146-.22l.366-1.396c0-.073.073-.147.146-.147h5.931c.074 0 .147.074.147.147l.366 1.396c.073.146 0 .22-.147.22zm-4.466-3.672v-4.628c0-.073.073-.22.146-.22h2.051c.073 0 .146.074.146.22v4.628m.073-5.142l.074-.073-.22-1.616h-.073l-.293.955h-1.538l-.293-.955h-.073l-.22 1.616c0 .073 0 .073.074.073h2.562z" stroke="#DADCEE" stroke-width=".5" stroke-miterlimit="10"/><path d="M370.864 137.345v-1.469l.659-.955a.221.221 0 01.293 0l.659.955v1.395m8.86 21.079h-19.331v3.599h19.331v-3.599zm.073 0h-19.55c-.073 0-.146-.073-.073-.147l1.025-1.395c0-.074.073-.074.146-.074h17.354c.073 0 .146 0 .146.074l1.025 1.395c.073.074 0 .147-.073.147zm-5.418-1.616l1.171 1.616m-10.983 0l1.171-1.616m4.467 0l1.757 1.616m-3.88 0l1.83-1.616" stroke="#DADCEE" stroke-width=".5" stroke-miterlimit="10"/><path d="M367.496 158.35h-1.172v3.599h1.172v-3.599z" stroke="#DADCEE" stroke-width=".5" stroke-miterlimit="10"/><path d="M367.496 158.35h-1.172v3.599h1.172v-3.599zm1.171 0h-1.171v3.599h1.171v-3.599zm1.172 0h-1.172v3.599h1.172v-3.599zm1.172 0h-1.172v3.599h1.172v-3.599zm1.244 0h-1.171v3.599h1.171v-3.599zm1.172 0h-1.172v3.599h1.172v-3.599zm1.171 0h-1.171v3.599h1.171v-3.599z" stroke="#DADCEE" stroke-width=".5" stroke-miterlimit="10"/><path d="M375.77 158.35h-1.172v3.599h1.172v-3.599zm1.245 0h-1.172v3.599h1.172v-3.599zm-17.573 5.656v-1.91c0-.073.073-.147.146-.147h24.09c.073 0 .146.074.146.147v1.91m-1.904 2.056h-20.501m26.725-2.056h-6.224v4.48h6.224v-4.48zm-26.799 0h-6.223v4.48h6.223v-4.48zm-6.223 1.469h6.297m20.501 0h6.224m-24.382 3.158v-.588c0-.514.366-.881.878-.881.513 0 .879.367.879.881v.588m1.757 0v-.588c0-.514.366-.881.879-.881.512 0 .879.367.879.881v.588m1.757 0v-.588c0-.514.366-.881.878-.881.513 0 .879.367.879.881v.588m1.684 0v-.588c0-.514.366-.881.879-.881.512 0 .878.367.878.881v.588m1.758 0v-.588c0-.514.366-.881.878-.881.513 0 .879.367.879.881v.588m-7.542-23.43h-.585a.578.578 0 01-.586-.587v-.588c0-.367.293-.587.586-.587h.585c.366 0 .586.293.586.587v.588c0 .294-.293.587-.586.587zm0 3.012h-.585a.578.578 0 01-.586-.588v-.587c0-.368.293-.588.586-.588h.585c.366 0 .586.294.586.588v.587c0 .294-.293.588-.586.588zm0 2.938h-.585a.578.578 0 01-.586-.588v-.588c0-.367.293-.587.586-.587h.585c.366 0 .586.294.586.587v.588a.579.579 0 01-.586.588zm-.732-17.848v-1.249c0-.22.22-.367.44-.367.219 0 .439.147.439.367v1.249h-.879zm-7.615 32.904v-1.689c0-.147.073-.221.22-.221h.805c.147 0 .22.074.22.221v1.689m1.757 0v-1.689c0-.147.074-.221.22-.221h.805c.147 0 .22.074.22.221v1.689m1.684 0v-1.689c0-.147.073-.221.22-.221h.805c.147 0 .22.074.22.221v1.689m1.757 0v-1.689c0-.147.073-.221.22-.221h.805c.147 0 .22.074.22.221v1.689m1.757 0v-1.689c0-.147.074-.221.22-.221h.805c.147 0 .22.074.22.221v1.689m1.684 0v-1.689c0-.147.073-.221.22-.221h.805c.147 0 .22.074.22.221v1.689m-41.663-6.243H334.4v8.667h3.661v-8.667zm7.981 0h3.735v8.667h-3.735v-8.667z" stroke="#DADCEE" stroke-width=".5" stroke-miterlimit="10"/><path d="M336.157 168.633h4.394v-24.458h-2.636v3.011h-1.758v12.78m11.789 0v-12.78h-1.684v-3.011h-2.636v24.458h4.32m-4.833-32.684h-2.05v9.328h2.05v-9.328zm0 4.333h1.684v3.893m-5.491 0v-3.893h1.757m-13.985-10.796h-2.636l-.366 1.102v1.909h3.441v-1.909l-.439-1.102zm-2.709 8.079h-1.537v-3.893l.805-.147.732.147v3.893zm4.32 0h-1.538v-3.893l.806-.147.732.147v3.893z" stroke="#DADCEE" stroke-width=".5" stroke-miterlimit="10"/><path d="M327.151 168.633h-2.782v-35.548l1.391-.588 1.391.588v35.548zm-2.782-31.068h-1.831v31.068h1.831v-31.068z" stroke="#DADCEE" stroke-width=".5" stroke-miterlimit="10"/><path d="M328.982 137.565h-1.831v31.068h1.831v-31.068zm-2.49-8.079h-1.537v3.011h1.537v-3.011zm-2.782 4.039v-1.028h4.173v1.028m-3.221 1.91h2.196m-2.196 2.644h2.196m-2.196 2.571h2.196m-2.196 2.644h2.196m-2.196 2.644h2.196m-2.196 2.644h2.196m-2.196 2.644h2.196m-2.196 2.644h2.196m-2.196 2.571h2.196m-2.196 2.644h2.196m-2.196 2.644h2.196m-2.196 2.644h2.196m-2.196 2.644h2.196m-16.035-34.226l1.538-.514c.146-.074.293 0 .293.147l.292 1.762m-7.834-.073l.293-1.763c0-.073.146-.147.293-.147l1.537.515m4.613 35.915h-5.565v-31.509c0-.514.44-.955.952-.955h3.734a.97.97 0 01.952.955v31.509h-.073zm-5.784 0h-2.343a1.393 1.393 0 01-1.392-1.396v-22.474c0-.735.586-1.396 1.392-1.396h1.098c.732 0 1.391.588 1.391 1.396v23.723c0 .073-.073.147-.146.147z" stroke="#DADCEE" stroke-width=".5" stroke-miterlimit="10"/><path d="M314.338 168.633h-2.49v-23.87c0-.735.586-1.396 1.391-1.396h1.099c.732 0 1.391.588 1.391 1.396v22.474c0 .735-.659 1.396-1.391 1.396zm-3.149-33.859l1.977-.661c.073-.073.22 0 .293.073l.732 2.645v6.536m-10.324 0v-6.536l.732-2.645c0-.073.147-.146.293-.073l1.977.661" stroke="#DADCEE" stroke-width=".5" stroke-miterlimit="10"/><path d="M306.869 136.169v-3.305c0-.073.073-.073.146-.073h4.028c.073 0 .146.073.146.073v3.305" stroke="#DADCEE" stroke-width=".5" stroke-miterlimit="10"/><path d="M308.993 134.333c.323 0 .585-.23.585-.514 0-.284-.262-.514-.585-.514-.324 0-.586.23-.586.514 0 .284.262.514.586.514zm2.928-1.909l-1.391-2.791c-.073-.221-.366-.221-.366 0v.734c0 .808 0 1.616.073 2.424m-4.1-.367l1.391-2.791c.073-.221.366-.221.366 0v.734c0 .808 0 1.616-.073 2.424m6.37 4.04h.806c.146 0 .219.073.219.146v6.39m-12.373 0v-6.39c0-.073.073-.146.219-.146h.806m4.026 27.689v-28.351m2.27 0v28.351m-3.881 0h5.492m-3.954 4.113v-2.718h2.416v2.718m172.655-46.712h-3.295v3.305h3.295v-3.305z" stroke="#DADCEE" stroke-width=".5" stroke-miterlimit="10"/><path d="M483.991 121.921h-5.419v3.305h5.419v-3.305zm.366-.074h-6.224c-.073 0-.22-.073-.22-.22v-.147c0-.073.073-.22.22-.22h6.297c.073 0 .22.073.22.22v.147c-.074.147-.147.22-.293.22z" stroke="#DADCEE" stroke-width=".5" stroke-miterlimit="10"/><path d="M484.21 121.333h-5.931v-.147c0-.22.147-.367.366-.367h5.199c.22 0 .366.147.366.367v.147z" stroke="#DADCEE" stroke-width=".5" stroke-miterlimit="10"/><path d="M483.99 119.497l-1.903-8.152m-1.684 0l-1.831 8.152" stroke="#DADCEE" stroke-width=".5" stroke-miterlimit="10" stroke-linecap="round"/><path d="M482.233 111.345h-1.904c-.073 0-.146-.074-.146-.147v-.147c0-.074.073-.147.146-.147h1.904c.073 0 .22.073.22.22v.147c-.073 0-.147.074-.22.074zm-.073-3.012h-1.757v2.424h1.757v-2.424z" stroke="#DADCEE" stroke-width=".5" stroke-miterlimit="10"/><path d="M482.087 108.04h-.073v-.294c0-.367-.367-.661-.806-.661-.439 0-.805.294-.805.661v.294h-.074a.157.157 0 00-.146.146c0 .074.073.147.146.147h1.758c.073 0 .146-.073.146-.147.073-.073 0-.146-.146-.146zm1.904 11.531h-5.419c-.073 0-.146.073-.146.147 0 .073.073.146.146.146v.882h5.419v-.882a.157.157 0 00.146-.146c0-.074-.073-.147-.146-.147z" stroke="#DADCEE" stroke-width=".5" stroke-miterlimit="10"/><path d="M481.281 124.785c.688 0 1.245-.559 1.245-1.248 0-.69-.557-1.249-1.245-1.249-.687 0-1.244.559-1.244 1.249 0 .689.557 1.248 1.244 1.248z" stroke="#DADCEE" stroke-width=".5" stroke-miterlimit="10" stroke-linecap="round"/><path d="M477.694 126.328v-.955c0-.074.074-.147.147-.147h6.809c.073 0 .147.073.147.147v.955" stroke="#DADCEE" stroke-width=".5" stroke-miterlimit="10"/><path d="M485.089 126.768h-7.688c-.074 0-.22-.073-.22-.22v-.147c0-.073.073-.22.22-.22h7.688c.073 0 .219.073.219.22v.147c0 .147-.146.22-.219.22zm-7.176 4.26h6.663m.22 1.91h-7.175c-.074 0-.22-.074-.22-.221v-.146c0-.074.073-.221.22-.221h7.175c.073 0 .22.074.22.221v.146c0 .147-.073.221-.22.221zm-.439 29.819h-6.224c-.073 0-.22-.073-.22-.22v-.147c0-.074.073-.221.22-.221h6.297c.073 0 .22.074.22.221v.147c-.074.147-.147.22-.293.22zm-.22 0v5.802h-5.785v-5.802" stroke="#DADCEE" stroke-width=".5" stroke-miterlimit="10"/><path d="M484.576 126.768h-6.663v5.582h6.663v-5.582z" stroke="#DADCEE" stroke-width=".5" stroke-miterlimit="10"/><path d="M482.892 131.028v-2.277c0-.293-.219-.514-.586-.514-.219 0-.439.147-.512.294-.073-.22-.293-.294-.513-.294-.219 0-.439.147-.512.294-.073-.22-.293-.294-.513-.294-.293 0-.585.221-.585.514v2.277m2.123-2.497v2.497m-1.098-2.497v2.497m-2.344 31.215v-29.305h5.785v29.305" stroke="#DADCEE" stroke-width=".5" stroke-miterlimit="10"/><path d="M482.306 135.362c-.219 0-.439.146-.512.293-.073-.22-.293-.293-.513-.293-.219 0-.439.146-.512.293-.073-.22-.293-.293-.513-.293-.293 0-.586.22-.586.514v26.293h3.149v-26.293c.073-.294-.22-.514-.513-.514zm-.512.367v26.514m0-26.514v26.514m-1.098-26.514v26.514m-1.172-22.107h3.368m-3.368 3.525h3.368m-3.368 3.452h3.368m-3.368 3.525h3.368m-3.368 3.526h3.368m-3.368 3.525h3.368m-2.782 10.944v-3.673c0-.661.512-1.175 1.171-1.175s1.172.514 1.172 1.175v3.673m-1.172-61.842a.367.367 0 000-.735.367.367 0 000 .735z" stroke="#DADCEE" stroke-width=".5" stroke-miterlimit="10"/><path d="M480.989 110.61v-1.689m.512 1.689v-1.689m-.22 14.689v-.734.734zm.732 0h-.732" stroke="#DADCEE" stroke-width=".5" stroke-miterlimit="10" stroke-linecap="round"/><path d="M401.837 168.633h-9.446l2.343-34.153c0-.073.073-.147.147-.147h4.539c.074 0 .147.074.147.147l2.27 34.153zm-6.224-38.045v-1.176c0-.073.073-.073.073-.073h.293c.074 0 .074.073.074.073v1.176m-.221-1.249v-4.921m-.366 9.254v-2.938c0-.073.074-.073.074-.073h.512c.073 0 .073.073.073.073v2.938m2.197-4.333v-4.921m-.22 6.17v-1.176c0-.073.074-.073.074-.073h.293c.073 0 .073.073.073.073v1.176m-.586 3.084v-2.938c0-.073.073-.073.073-.073h.513c.073 0 .073.073.073.073v2.938" stroke="#DADCEE" stroke-width=".5" stroke-miterlimit="10"/><path d="M394.807 134.26v-.514c0-.074.074-.147.147-.147h4.32c.073 0 .146.073.146.147v.514m-4.466 1.836l4.613 4.333m-.293-4.333l-4.613 4.333m-.073.368l5.345 4.921m-.366-4.921l-5.272 4.921m-.073.44l6.151 5.582m-.367-5.582l-6.15 5.582m-.146.514l7.175 6.61m-.44-6.61l-7.175 6.61m.073.515l8.054 7.418m-.511-7.418l-7.982 7.418m1.903-31.068h4.54m-4.54 4.847h4.54m-4.833 5.362h5.053m-5.711 6.169h6.443m-6.883 7.051h7.176m-7.176 7.786h7.396m52.352-19.978h-11.349v21.667h11.349v-21.667zm7.908-6.61h-4.613v28.277h4.613v-28.277zm-4.613 0v-4.333c0-.074.074-.147.147-.147h4.32c.073 0 .146.073.146.147v4.333m-3.954-4.48v-2.277c0-.074.074-.147.147-.147h3.075c.073 0 .147.073.147.147v2.277m-1.245-2.497v-1.323s0-.073-.073-.073h-.074v-.441c0-.073 0-.073-.073-.073h-.512c-.074 0-.074 0-.074.073v.441h-.073s-.073 0-.073.073v1.323m.512-3.746v1.909" stroke="#DADCEE" stroke-width=".5" stroke-miterlimit="10"/><path d="M458.802 139.254c.769 0 1.392-.625 1.392-1.395 0-.771-.623-1.396-1.392-1.396-.768 0-1.391.625-1.391 1.396 0 .77.623 1.395 1.391 1.395z" stroke="#DADCEE" stroke-width=".5" stroke-miterlimit="10"/><path d="M459.243 138.226l-.514-.367v-.661m5.492 6.022v25.413m7.981-21.667h-7.981v21.667h7.981v-21.667zm-14.644 21.667v-4.334c0-.734.585-1.248 1.244-1.248.733 0 1.245.587 1.245 1.248v4.334m-18.232-17.48h30.387m-30.387 1.542h30.387m-15.743-9.475h-.146v-1.395c0-.367-.146-.661-.366-.808 0-.588-.439-1.028-1.025-1.028-.586 0-1.025.44-1.025 1.028-.22.22-.366.514-.366.808v1.395h-.293v25.339m7.834-25.339h.147v-1.395c0-.367.146-.661.366-.808 0-.588.439-1.028 1.025-1.028.586 0 1.025.44 1.025 1.028.22.22.366.514.366.808v1.395h.147v25.339" stroke="#DADCEE" stroke-width=".5" stroke-miterlimit="10"/><path d="M454.922 144.249h-.22c-.22 0-.366-.147-.366-.368v-1.248c0-.221.146-.367.366-.367h.293c.22 0 .366.146.366.367v1.248c-.073.147-.22.368-.439.368zm7.834 0h-.292c-.22 0-.367-.147-.367-.368v-1.248c0-.221.147-.367.367-.367h.292c.22 0 .366.146.366.367v1.248c0 .147-.146.368-.366.368zm-18.012 12.485h-.439c-.293 0-.586-.293-.586-.587v-.441c0-.294.293-.587.586-.587h.439c.293 0 .586.293.586.587v.441a.578.578 0 01-.586.587zm3.149 0h-.513c-.293 0-.586-.293-.586-.587v-.441c0-.294.293-.587.586-.587h.439c.293 0 .586.293.586.587v.441c.073.367-.22.587-.512.587zm3.148 0h-.439c-.293 0-.586-.293-.586-.587v-.441c0-.294.293-.587.586-.587h.439c.293 0 .586.293.586.587v.441a.578.578 0 01-.586.587zm-6.297 3.232h-.439c-.293 0-.586-.294-.586-.587v-.441c0-.294.293-.588.586-.588h.439c.293 0 .586.294.586.588v.441a.578.578 0 01-.586.587zm3.149 0h-.513c-.293 0-.586-.294-.586-.587v-.441c0-.294.293-.588.586-.588h.439c.293 0 .586.294.586.588v.441c.073.367-.22.587-.512.587zm3.148 0h-.439c-.293 0-.586-.294-.586-.587v-.441c0-.294.293-.588.586-.588h.439c.293 0 .586.294.586.588v.441a.578.578 0 01-.586.587zm-6.297 3.232h-.439c-.293 0-.586-.294-.586-.588v-.441c0-.293.293-.587.586-.587h.439c.293 0 .586.294.586.587v.441c0 .294-.293.588-.586.588zm3.149 0h-.513c-.293 0-.586-.294-.586-.588v-.441c0-.293.293-.587.586-.587h.439c.293 0 .586.294.586.587v.441c.073.294-.22.588-.512.588zm3.148 0h-.439c-.293 0-.586-.294-.586-.588v-.441c0-.293.293-.587.586-.587h.439c.293 0 .586.294.586.587v.441c0 .294-.293.588-.586.588zm-6.297 3.231h-.439c-.293 0-.586-.293-.586-.587v-.441c0-.294.293-.587.586-.587h.439c.293 0 .586.293.586.587v.441c0 .294-.293.587-.586.587zm3.149 0h-.513c-.293 0-.586-.293-.586-.587v-.441c0-.294.293-.587.586-.587h.439c.293 0 .586.293.586.587v.441c.073.294-.22.587-.512.587zm3.148 0h-.439c-.293 0-.586-.293-.586-.587v-.441c0-.294.293-.587.586-.587h.439c.293 0 .586.293.586.587v.441c0 .294-.293.587-.586.587zm-6.297-16.378h-.439c-.293 0-.586-.294-.586-.588v-.44c0-.294.293-.588.586-.588h.439c.293 0 .586.294.586.588v.44c0 .294-.293.588-.586.588zm3.149 0h-.513c-.293 0-.586-.294-.586-.588v-.44c0-.294.293-.588.586-.588h.439c.293 0 .586.294.586.588v.44c.073.294-.22.588-.512.588zm3.148 0h-.439c-.293 0-.586-.294-.586-.588v-.44c0-.294.293-.588.586-.588h.439c.293 0 .586.294.586.588v.44c0 .294-.293.588-.586.588zm15.962 6.683h-.439c-.293 0-.586-.293-.586-.587v-.441c0-.294.293-.587.586-.587h.439c.293 0 .586.293.586.587v.441a.578.578 0 01-.586.587zm3.149 0h-.44c-.292 0-.585-.293-.585-.587v-.441c0-.294.293-.587.585-.587h.44c.293 0 .586.293.586.587v.441a.578.578 0 01-.586.587zm-3.149 3.232h-.439c-.293 0-.586-.294-.586-.587v-.441c0-.294.293-.588.586-.588h.439c.293 0 .586.294.586.588v.441a.578.578 0 01-.586.587zm3.149 0h-.44c-.292 0-.585-.294-.585-.587v-.441c0-.294.293-.588.585-.588h.44c.293 0 .586.294.586.588v.441a.578.578 0 01-.586.587zm-3.149 3.232h-.439c-.293 0-.586-.294-.586-.588v-.441c0-.293.293-.587.586-.587h.439c.293 0 .586.294.586.587v.441c0 .294-.293.588-.586.588zm3.149 0h-.44c-.292 0-.585-.294-.585-.588v-.441c0-.293.293-.587.585-.587h.44c.293 0 .586.294.586.587v.441c0 .294-.293.588-.586.588zm-3.149 3.231h-.439c-.293 0-.586-.293-.586-.587v-.441c0-.294.293-.587.586-.587h.439c.293 0 .586.293.586.587v.441c0 .294-.293.587-.586.587zm3.149 0h-.44c-.292 0-.585-.293-.585-.587v-.441c0-.294.293-.587.585-.587h.44c.293 0 .586.293.586.587v.441c0 .294-.293.587-.586.587zm-3.149-16.378h-.439c-.293 0-.586-.294-.586-.588v-.44c0-.294.293-.588.586-.588h.439c.293 0 .586.294.586.588v.44c0 .294-.293.588-.586.588zm3.149 0h-.44c-.292 0-.585-.294-.585-.588v-.44c0-.294.293-.588.585-.588h.44c.293 0 .586.294.586.588v.44c0 .294-.293.588-.586.588zm-11.203 0h-.439c-.293 0-.586-.294-.586-.588v-.44c0-.294.293-.588.586-.588h.439c.293 0 .586.294.586.588v.44c0 .294-.293.588-.586.588zm0-3.232h-.439c-.293 0-.586-.294-.586-.587v-.441c0-.294.293-.588.586-.588h.439c.293 0 .586.294.586.588v.441c0 .293-.293.587-.586.587zm0-3.231h-.439c-.293 0-.586-.294-.586-.588v-.441c0-.293.293-.587.586-.587h.439c.293 0 .586.294.586.587V143c0 .294-.293.588-.586.588zm0 13.661h-.439c-.293 0-.586-.294-.586-.588v-.441c0-.293.293-.587.586-.587h.439c.293 0 .586.294.586.587v.441c0 .294-.293.588-.586.588zm0 3.525h-.439c-.293 0-.586-.294-.586-.588v-.44c0-.294.293-.588.586-.588h.439c.293 0 .586.294.586.588v.44c0 .294-.293.588-.586.588zm3.807-14.469h-.292c-.22 0-.367-.147-.367-.367v-.294c0-.22.147-.367.367-.367h.292c.22 0 .366.147.366.367v.294c0 .22-.146.367-.366.367zm0 1.91h-.292c-.22 0-.367-.147-.367-.368v-.22c0-.22.147-.367.367-.367h.292c.22 0 .366.147.366.367v.294c0 .147-.146.294-.366.294zm0 1.909h-.292c-.22 0-.367-.147-.367-.367v-.294c0-.22.147-.367.367-.367h.292c.22 0 .366.147.366.367v.294c0 .22-.146.367-.366.367zm-7.834-3.819h-.22c-.22 0-.366-.147-.366-.367v-.294c0-.22.146-.367.366-.367h.293c.22 0 .366.147.366.367v.294c-.073.22-.22.367-.439.367zm0 1.91h-.22c-.22 0-.366-.147-.366-.368v-.22c0-.22.146-.367.366-.367h.293c.22 0 .366.147.366.367v.294a.494.494 0 01-.439.294zm0 1.909h-.22c-.22 0-.366-.147-.366-.367v-.294c0-.22.146-.367.366-.367h.293c.22 0 .366.147.366.367v.294c-.073.22-.22.367-.439.367zm7.834 4.701h-.292c-.22 0-.367-.147-.367-.367v-.294c0-.221.147-.367.367-.367h.292c.22 0 .366.146.366.367v.294c0 .22-.146.367-.366.367zm0 1.909h-.292c-.22 0-.367-.146-.367-.367v-.294c0-.22.147-.367.367-.367h.292c.22 0 .366.147.366.367v.294c0 .221-.146.367-.366.367zm0 1.91h-.292c-.22 0-.367-.147-.367-.367v-.294c0-.22.147-.367.367-.367h.292c.22 0 .366.147.366.367v.294c0 .22-.146.367-.366.367zm0 2.13h-.292c-.22 0-.367-.147-.367-.367v-.294c0-.22.147-.367.367-.367h.292c.22 0 .366.147.366.367v.294c0 .22-.146.367-.366.367zm0 1.91h-.292c-.22 0-.367-.147-.367-.368v-.293c0-.221.147-.368.367-.368h.292c.22 0 .366.147.366.368v.293c0 .221-.146.368-.366.368zm0 1.909h-.292c-.22 0-.367-.147-.367-.367v-.294c0-.22.147-.367.367-.367h.292c.22 0 .366.147.366.367v.294c0 .22-.146.367-.366.367zm-7.834-9.768h-.22c-.22 0-.366-.147-.366-.367v-.294c0-.221.146-.367.366-.367h.293c.22 0 .366.146.366.367v.294c-.073.22-.22.367-.439.367zm0 1.909h-.22c-.22 0-.366-.146-.366-.367v-.294c0-.22.146-.367.366-.367h.293c.22 0 .366.147.366.367v.294c-.073.221-.22.367-.439.367zm0 1.91h-.22c-.22 0-.366-.147-.366-.367v-.294c0-.22.146-.367.366-.367h.293c.22 0 .366.147.366.367v.294c-.073.22-.22.367-.439.367zm0 2.13h-.22c-.22 0-.366-.147-.366-.367v-.294c0-.22.146-.367.366-.367h.293c.22 0 .366.147.366.367v.294c-.073.22-.22.367-.439.367zm0 1.91h-.22c-.22 0-.366-.147-.366-.368v-.293c0-.221.146-.368.366-.368h.293c.22 0 .366.147.366.368v.293c-.073.221-.22.368-.439.368zm0 1.909h-.22c-.22 0-.366-.147-.366-.367v-.294c0-.22.146-.367.366-.367h.293c.22 0 .366.147.366.367v.294c-.073.22-.22.367-.439.367zm7.834 1.983h-.292c-.22 0-.367-.147-.367-.367v-.294c0-.22.147-.367.367-.367h.292c.22 0 .366.147.366.367v.294c0 .147-.146.367-.366.367zm0 1.91h-.292c-.22 0-.367-.147-.367-.367v-.294c0-.22.147-.367.367-.367h.292c.22 0 .366.147.366.367v.294c0 .22-.146.367-.366.367zm-7.834-1.91h-.22c-.22 0-.366-.147-.366-.367v-.294c0-.22.146-.367.366-.367h.293c.22 0 .366.147.366.367v.294c-.073.147-.22.367-.439.367zm0 1.91h-.22c-.22 0-.366-.147-.366-.367v-.294c0-.22.146-.367.366-.367h.293c.22 0 .366.147.366.367v.294c-.073.22-.22.367-.439.367zm2.929-32.61v-1.249c0-.147.146-.294.293-.294s.293.147.293.294v1.249m.658 0v-1.249c0-.147.147-.294.293-.294.147 0 .293.147.293.294v1.249m69.633 17.333l-2.709.881c-.586.221-.439 1.102.22 1.102h5.418c.659 0 .806-.955.22-1.102l-2.709-.881h-.44zm1.684-2.497v-4.187h.22c.073 0 .073-.073 0-.073l-1.172-.294a2.42 2.42 0 00-1.025 0l-1.171.294c-.073 0-.073.073 0 .073h.219v4.187" stroke="#DADCEE" stroke-width=".5" stroke-miterlimit="10"/><path d="M530.998 146.452c0-.441-.292-.808-.805-1.028v-1.322h.073c.147 0 .22-.147.073-.294l-.512-.367v-1.102c0-.073-.073-.147-.147-.147v-1.175c0-.074-.073-.074-.073-.074h-.073v-.734s0-.073-.073-.073c0 0-.073 0-.073.073v.734c-.074 0-.074.074-.074.074v1.175c-.073 0-.146.074-.146.147v1.102l-.513.367c-.073.073-.073.294.074.294h.073v1.322c-.513.22-.806.587-.806 1.028" stroke="#DADCEE" stroke-width=".5" stroke-miterlimit="10"/><path d="M529.534 145.056a.366.366 0 100-.733.366.366 0 000 .733zm-1.904 6.684v-.881c0-.074.073-.074.073-.074h3.515c.073 0 .073.074.073.074v.881" stroke="#DADCEE" stroke-width=".5" stroke-miterlimit="10"/><path d="M526.459 154.164v-2.204c0-.146.146-.22.293-.22h1.61m2.343 0h1.611c.147 0 .293.147.293.22v2.13" stroke="#DADCEE" stroke-width=".5" stroke-miterlimit="10"/><path d="M528.289 153.576v-1.983c0-.147.147-.294.293-.294h1.904c.146 0 .293.147.293.294v1.983" stroke="#DADCEE" stroke-width=".5" stroke-miterlimit="10"/><path d="M528.729 153.429v-.661c0-.147.146-.22.293-.22s.293.073.293.22v.441m.365 0v-.441c0-.147.147-.22.293-.22.147 0 .293.073.293.22v.661m.952.294v-.955c0-.147.146-.22.293-.22.146 0 .293.073.293.22v1.176m-4.613 0v-1.176c0-.147.146-.22.293-.22.146 0 .293.073.293.22v.955m1.244-3.011v-3.672c0-.294.22-.515.513-.515.293 0 .513.221.513.515v3.672m.146 0v-3.305c0-.221.146-.441.293-.441.146 0 .293.22.293.441v3.305m-2.49 0v-3.305c0-.221.147-.441.294-.441.146 0 .293.22.293.441v3.305m-2.857 4.113h6.956c.074 0 .074-.074 0-.074l-3.514-1.101h-.073l-3.515 1.101c.073 0 .073.074.146.074zm8.421 1.248h-9.885a.314.314 0 01-.293-.293v-.221c0-.147.146-.293.293-.293h9.885c.146 0 .293.146.293.293v.221a.315.315 0 01-.293.293zm-8.86.441l.073-.441h-1.025l.073.441c-.073 0-.073.074-.073.147v.22c0 .074.073.147.147.147v6.757c-.074 0-.147.074-.147.147v.221c0 .073.073.146.147.146h.732a.157.157 0 00.146-.146v-.221c0-.073-.073-.147-.146-.147v-6.757c.073 0 .146-.073.146-.147v-.22c.073-.147 0-.147-.073-.147zm2.197 0l.073-.441h-1.025l.073.441c-.073 0-.073.074-.073.147v.22c0 .074.073.147.146.147v6.757c-.073 0-.146.074-.146.147v.221c0 .073.073.146.146.146h.732c.074 0 .147-.073.147-.146v-.221c0-.073-.073-.147-.147-.147v-6.757a.157.157 0 00.147-.147v-.22c0-.147 0-.147-.073-.147zm2.196 0l.074-.441h-1.026l.074.441c-.074 0-.074.074-.074.147v.22c0 .074.074.147.147.147v6.757c-.073 0-.147.074-.147.147v.221c0 .073.074.146.147.146h.732c.073 0 .147-.073.147-.146v-.221c0-.073-.074-.147-.147-.147v-6.757c.073 0 .147-.073.147-.147v-.22c0-.147-.074-.147-.074-.147zm2.124 0l.073-.441h-1.025l.073.441c-.073 0-.073.074-.073.147v.22c0 .074.073.147.146.147v6.757c-.073 0-.146.074-.146.147v.221c0 .073.073.146.146.146h.732c.074 0 .147-.073.147-.146v-.221c0-.073-.073-.147-.147-.147v-6.757a.157.157 0 00.147-.147v-.22c0-.147 0-.147-.073-.147zm2.196 0l.074-.441h-1.026l.074.441c-.074 0-.074.074-.074.147v.22c0 .074.074.147.147.147v6.757c-.073 0-.147.074-.147.147v.221c0 .073.074.146.147.146h.732c.073 0 .147-.073.147-.146v-.221c0-.073-.074-.147-.147-.147v-6.757c.073 0 .147-.073.147-.147v-.22c0-.147 0-.147-.074-.147z" stroke="#DADCEE" stroke-width=".5" stroke-miterlimit="10"/><path d="M535.245 164.226h-11.422v.955h11.422v-.955zm.806.955h-13.034v1.101h13.034v-1.101zm.952 1.101h-14.938v1.102h14.938v-1.102zm.878 1.176H521.04v1.101h16.841v-1.101zM525.8 154.237l-24.163-.367m23.211 3.379h-23.211m23.211.954h-23.211m23.211 4.995c-1.538.073-3.075.073-4.613.147-6.297.22-12.448.661-18.525 1.101m22.625-8.96l-21.893-.294m-.073.22h-12.008c-.147 0-.22-.293-.074-.44l1.026-1.102.073-.073h10.031s.073 0 .073.073l.879 1.102c.22.147.146.44 0 .44zm.073.074h-12.081v1.763h12.081v-1.763z" stroke="#DADCEE" stroke-width=".5" stroke-miterlimit="10"/><path d="M490.58 157.249h11.569c.22 0 .367.146.367.367v.294c0 .22-.147.367-.367.367H490.58c-.219 0-.366-.147-.366-.367v-.294c0-.221.147-.367.366-.367zm1.538 1.395l.073-.294h-1.025l.073.294c-.073 0-.073.074-.073.074v.22c0 .073.073.073.147.073v5.362a.157.157 0 00-.147.147v.147c0 .073.073.147.147.147h.732c.073 0 .146-.074.146-.147v-.147c0-.074-.073-.147-.146-.147v-5.362c.073 0 .146-.073.146-.073v-.22c0-.074 0-.074-.073-.074zm3.149 0l.073-.294h-1.025l.073.294c-.073 0-.073.074-.073.074v.22c0 .073.073.073.146.073v5.362c-.073 0-.146.073-.146.147v.147c0 .073.073.147.146.147h.732c.074 0 .147-.074.147-.147v-.147a.157.157 0 00-.147-.147v-5.362c.074 0 .147-.073.147-.073v-.22c0-.074 0-.074-.073-.074zm3.148 0l.073-.294h-1.025l.073.294c-.073 0-.073.074-.073.074v.22c0 .073.073.073.147.073v5.362a.157.157 0 00-.147.147v.147c0 .073.073.147.147.147h.732c.073 0 .146-.074.146-.147v-.147c0-.074-.073-.147-.146-.147v-5.362c.073 0 .146-.073.146-.073v-.22c0-.074-.073-.074-.073-.074zm3.075 0l.074-.294h-1.026l.074.294c-.074 0-.074.074-.074.074v.22c0 .073.074.073.147.073v5.362c-.073 0-.147.073-.147.147v.147c0 .073.074.147.147.147h.732c.073 0 .147-.074.147-.147v-.147c0-.074-.074-.147-.147-.147v-5.362c.073 0 .147-.073.147-.073v-.22c.073-.074 0-.074-.074-.074zm2.197 4.774h-.22c-.146 0-.293-.147-.293-.294v-3.158c0-.147.147-.294.293-.294h.22c.146 0 .293.147.293.294v3.158c0 .147-.147.294-.293.294zm1.611-.514h-.22c-.146 0-.293-.147-.293-.294v-2.791c0-.147.147-.294.293-.294h.22c.146 0 .293.147.293.294v2.791c-.074.147-.147.294-.293.294zm1.537 0h-.219c-.147 0-.293-.147-.293-.294v-2.791c0-.147.146-.294.293-.294h.219c.147 0 .293.147.293.294v2.791c0 .147-.073.294-.293.294zm1.611 0h-.219c-.147 0-.293-.147-.293-.294v-2.791c0-.147.146-.294.293-.294h.219c.147 0 .293.147.293.294v2.791c0 .147-.073.294-.293.294zm1.611-.294h-.219c-.147 0-.293-.147-.293-.294v-1.983c0-.147.146-.293.293-.293h.219c.147 0 .293.146.293.293v1.983c0 .147-.073.294-.293.294zm1.611 0h-.22c-.146 0-.292-.147-.292-.294v-1.983c0-.147.146-.293.292-.293h.22c.146 0 .293.146.293.293v1.983c0 .147-.147.294-.293.294zm1.611 0h-.22c-.146 0-.293-.147-.293-.294v-1.983c0-.147.147-.293.293-.293h.22c.146 0 .293.146.293.293v1.983c0 .147-.147.294-.293.294zm1.611 0h-.22c-.146 0-.293-.147-.293-.294v-2.644c0-.147.147-.293.293-.293h.22c.146 0 .293.146.293.293v2.644c0 .147-.147.294-.293.294zm1.611 0h-.22c-.147 0-.293-.147-.293-.294v-2.644c0-.147.146-.293.293-.293h.22c.146 0 .292.146.292.293v2.644c0 .147-.146.294-.292.294zm1.61-.367h-.219c-.147 0-.293-.147-.293-.294v-2.203c0-.147.146-.294.293-.294h.219c.147 0 .293.147.293.294v2.203c0 .22-.146.294-.293.294zm1.611-.147h-.219c-.147 0-.293-.147-.293-.294v-1.983c0-.147.146-.294.293-.294h.219c.147 0 .293.147.293.294v1.983c0 .147-.146.294-.293.294zm1.611 0h-.22c-.146 0-.292-.147-.292-.294v-1.983c0-.147.146-.294.292-.294h.22c.147 0 .293.147.293.294v1.983c0 .147-.146.294-.293.294zm1.611 0h-.22c-.146 0-.293-.147-.293-.294v-1.983c0-.147.147-.294.293-.294h.22c.146 0 .293.147.293.294v1.983c0 .147-.147.294-.293.294z" stroke="#DADCEE" stroke-width=".5" stroke-miterlimit="10"/><path d="M501.345 164.74h-9.666c-.585 0-1.025.441-1.025 1.028v1.837c0 .587.44 1.028 1.025 1.028h9.666c.585 0 1.025-.441 1.025-1.028v-1.837c-.074-.514-.513-1.028-1.025-1.028zm31.923-10.503l24.236-.367m-23.284 3.379h23.284m-23.284.954h23.284m-23.284 4.995c1.538.073 3.075.073 4.613.147 6.297.22 12.448.661 18.525 1.101m-22.625-8.96l21.966-.294m0 .22h12.008c.147 0 .22-.293.073-.44l-1.025-1.102-.073-.073h-10.031s-.073 0-.073.073l-.879 1.102c-.22.147-.147.44 0 .44zm-.079 1.867h12.081v-1.763H556.62v1.763z" stroke="#DADCEE" stroke-width=".5" stroke-miterlimit="10"/><path d="M568.488 157.249h-11.569c-.22 0-.367.146-.367.367v.294c0 .22.147.367.367.367h11.569c.219 0 .366-.147.366-.367v-.294c0-.221-.147-.367-.366-.367zm-1.538 1.395l-.073-.294h1.025l-.073.294c.073 0 .073.074.073.074v.22c0 .073-.073.073-.147.073v5.362c.074 0 .147.073.147.147v.147c0 .073-.073.147-.147.147h-.732c-.073 0-.146-.074-.146-.147v-.147c0-.074.073-.147.146-.147v-5.362c-.073 0-.146-.073-.146-.073v-.22c0-.074 0-.074.073-.074zm-3.149 0l-.073-.294h1.025l-.073.294c.073 0 .073.074.073.074v.22c0 .073-.073.073-.146.073v5.362c.073 0 .146.073.146.147v.147c0 .073-.073.147-.146.147h-.732c-.074 0-.147-.074-.147-.147v-.147c0-.074.073-.147.147-.147v-5.362c-.074 0-.147-.073-.147-.073v-.22c0-.074.073-.074.073-.074zm-3.075 0l-.073-.294h1.025l-.073.294c.073 0 .073.074.073.074v.22c0 .073-.073.073-.146.073v5.362c.073 0 .146.073.146.147v.147c0 .073-.073.147-.146.147h-.733c-.073 0-.146-.074-.146-.147v-.147c0-.074.073-.147.146-.147v-5.362c-.073 0-.146-.073-.146-.073v-.22c-.073-.074 0-.074.073-.074zm-3.148 0l-.074-.294h1.025l-.073.294c.073 0 .073.074.073.074v.22c0 .073-.073.073-.146.073v5.362c.073 0 .146.073.146.147v.147c0 .073-.073.147-.146.147h-.732c-.073 0-.147-.074-.147-.147v-.147c0-.074.074-.147.147-.147v-5.362c-.073 0-.147-.073-.147-.073v-.22c0-.074 0-.074.074-.074z" stroke="#DADCEE" stroke-width=".5" stroke-miterlimit="10"/><path d="M567.536 164.74h-9.666c-.585 0-1.025.441-1.025 1.028v1.837c0 .587.44 1.028 1.025 1.028h9.666c.585 0 1.025-.441 1.025-1.028v-1.837c0-.514-.44-1.028-1.025-1.028zm-12.082-1.322h.22c.146 0 .293-.147.293-.294v-3.158c0-.147-.147-.294-.293-.294h-.22c-.146 0-.293.147-.293.294v3.158c0 .147.073.294.293.294zm-1.611-.514h.22c.146 0 .293-.147.293-.294v-2.791c0-.147-.147-.294-.293-.294h-.22c-.146 0-.293.147-.293.294v2.791c0 .147.147.294.293.294zm-1.611 0h.22c.146 0 .293-.147.293-.294v-2.791c0-.147-.147-.294-.293-.294h-.22c-.146 0-.293.147-.293.294v2.791c0 .147.147.294.293.294zm-1.61 0h.219c.147 0 .293-.147.293-.294v-2.791c0-.147-.146-.294-.293-.294h-.219c-.147 0-.293.147-.293.294v2.791c0 .147.146.294.293.294zm-1.611-.294h.219c.147 0 .293-.147.293-.294v-1.983a.314.314 0 00-.293-.293h-.219a.314.314 0 00-.293.293v1.983c0 .147.146.294.293.294zm-1.611 0h.219c.147 0 .293-.147.293-.294v-1.983a.314.314 0 00-.293-.293h-.219a.314.314 0 00-.293.293v1.983c0 .147.146.294.293.294zm-1.611 0h.22c.146 0 .293-.147.293-.294v-1.983a.315.315 0 00-.293-.293h-.22a.315.315 0 00-.293.293v1.983c0 .147.147.294.293.294zm-1.611 0h.22c.146 0 .293-.147.293-.294v-2.644a.315.315 0 00-.293-.293h-.22a.315.315 0 00-.293.293v2.644c0 .147.147.294.293.294zm-1.611 0h.22c.146 0 .293-.147.293-.294v-2.644a.315.315 0 00-.293-.293h-.22a.315.315 0 00-.293.293v2.644c0 .147.147.294.293.294zm-1.611-.367h.22c.147 0 .293-.147.293-.294v-2.203c0-.147-.146-.294-.293-.294h-.22c-.146 0-.292.147-.292.294v2.203c0 .22.146.294.292.294zm-1.61-.147h.219c.147 0 .293-.147.293-.294v-1.983c0-.147-.146-.294-.293-.294h-.219c-.147 0-.293.147-.293.294v1.983c0 .147.146.294.293.294zm-1.611 0h.219c.147 0 .293-.147.293-.294v-1.983c0-.147-.146-.294-.293-.294h-.219c-.147 0-.293.147-.293.294v1.983c0 .147.146.294.293.294zm-1.611 0h.219c.147 0 .293-.147.293-.294v-1.983c0-.147-.146-.294-.293-.294h-.219c-.147 0-.293.147-.293.294v1.983c0 .147.146.294.293.294z" stroke="#DADCEE" stroke-width=".5" stroke-miterlimit="10"/><path d="M120.229 147.847a3.787 3.787 0 003.807-3.819c0 2.13 1.758 3.819 3.808 3.819a3.787 3.787 0 003.807-3.819c0 2.13 1.758 3.819 3.808 3.819a3.787 3.787 0 003.807-3.819c0 2.13 1.758 3.819 3.808 3.819 2.123 0 3.807-1.762 3.807-3.892 0 2.13 1.684 3.892 3.808 3.892a3.787 3.787 0 003.807-3.819c0 2.13 1.758 3.819 3.808 3.819s3.807-1.689 3.807-3.819c0 2.13 1.758 3.819 3.808 3.819h.439v19.831h-25.701v-11.825c0-1.763-.951-3.599-2.489-4.847-1.245-1.029-2.782-1.69-4.467-1.69-1.684 0-3.221.661-4.466 1.69-1.538 1.322-2.489 3.158-2.489 4.847v11.825h-6.664v-19.831h.147zm33.608 5.729h-5.125a.97.97 0 00-.952.955v6.463a.97.97 0 00.952.955h10.251a.971.971 0 00.952-.955v-6.463a.971.971 0 00-.952-.955h-5.126z" fill="#47A8A5"/><path d="M162.404 144.102l-2.929-12.927h5.858l4.759 12.633v.147a3.818 3.818 0 01-3.368 3.819h-.439c-2.197.073-3.881-1.616-3.881-3.672z" fill="#F15C46"/><path d="M153.837 153.576h5.126c.512 0 .952.441.952.955v3.085h-6.078v-4.04zm0 8.447v-4.334h6.078v3.379c0 .514-.44.955-.952.955h-5.126zm.147-38.119a3.677 3.677 0 013.661 3.672c0 1.029-.439 1.91-1.098 2.571-.659.661-1.538 1.102-2.563 1.102h-21.527a3.678 3.678 0 01-3.661-3.673c0-1.028.439-1.909 1.098-2.57.659-.661 1.538-1.102 2.563-1.102h4.979c.293 1.469.952 2.717 1.757 3.746.22.294 1.318 1.175 3.808 1.175 2.489 0 3.587-.955 3.807-1.175.073-.074.147-.221.22-.294.732.073 3.075.367 4.686-1.175.366-.367 1.171-1.102 1.025-1.983 0-.074 0-.147-.073-.294h1.318z" fill="#fff"/><path d="M154.716 144.102a3.787 3.787 0 01-3.807 3.819c-2.124 0-3.808-1.763-3.808-3.893l-.512-12.853h6.37l1.757 12.927z" fill="#F15C46"/><path d="M149.591 126.695c.366-.22 1.903-1.102 1.757-2.13-.073-.588-.659-.955-.732-.955-.659-.367-1.538-.147-2.197.441h-.073c.073-.147.073-.294.073-.514h.073c.073-.074.732-1.102 1.904-1.175.952 0 1.904.587 2.197 1.395 0 .074.073.147.073.294.146.881-.659 1.689-1.025 1.983-1.611 1.469-3.954 1.248-4.686 1.175.659.147 1.684.073 2.636-.514z" fill="#47A8A5"/><path d="M148.712 153.576h5.125v4.113h-6.077v-3.084c-.073-.588.366-1.029.952-1.029z" fill="#fff"/><path d="M143.66 120.379c2.855.073 5.125.587 5.125 1.248s-2.563 1.249-5.784 1.249c-3.149 0-5.785-.514-5.785-1.249 0-.661 2.563-1.248 5.785-1.248h.073c-.073.146-.22.293-.293.44l.879-.44z" fill="#47A8A5"/><path d="M148.712 121.627c0 .661-.073 1.396-.22 1.983 0 .147-.073.367-.073.514-.293 1.249-.805 2.351-1.464 3.232h-.074.074c-.074.073-.147.22-.22.294-.22.294-1.318 1.175-3.808 1.175-2.489 0-3.587-.955-3.807-1.175-.806-.955-1.391-2.277-1.757-3.746a11.4 11.4 0 01-.22-2.277c0 .661 2.563 1.249 5.784 1.249 3.222-.074 5.785-.588 5.785-1.249z" fill="#47A8A5"/><path d="M153.837 162.023h-5.125a.97.97 0 01-.952-.955v-3.379h6.077v4.334zm-6.59-44.582c.074.661-.732 1.542-3.661 2.938h-.585c.219-.368.439-.735.366-1.249-.074-2.057-3.808-2.864-3.735-3.966.074-.514.952-1.175 4.613-1.763-.878.441-1.611.955-1.537 1.469.219 1.175 4.32 1.322 4.539 2.571zm-.219 26.587c0 2.13-1.684 3.893-3.808 3.893a3.787 3.787 0 01-3.807-3.819l.512-12.927h6.664l.439 12.853zm-6.078 11.825h-6.956v11.825h6.956v-11.825zm-2.489-4.921c1.538 1.322 2.489 3.158 2.489 4.848h-6.956l4.467-4.848z" fill="#fff"/><path d="M139.852 131.175l-.512 12.927c0 2.13-1.758 3.819-3.808 3.819a3.787 3.787 0 01-3.807-3.819l1.757-12.853h6.37v-.074z" fill="#F15C46"/><path d="M138.461 150.932l-4.467 4.848-4.466-4.848a6.86 6.86 0 014.466-1.689c1.685 0 3.222.734 4.467 1.689zm-4.467 4.921h-6.956v11.825h6.956v-11.825z" fill="#fff"/><path d="M129.528 150.932l4.466 4.848h-6.956c0-1.69.952-3.526 2.49-4.848zm2.197-6.83c0 2.13-1.758 3.819-3.808 3.819a3.787 3.787 0 01-3.807-3.819l2.855-12.927h6.517l-1.757 12.927z" fill="#fff"/><path d="M124.11 144.102c0 2.13-1.758 3.819-3.808 3.819h-.146c-2.051-.074-3.661-1.763-3.661-3.893v-.147l4.759-12.632h5.784l-2.928 12.853z" fill="#F15C46"/><path d="M115.469 144.983c0 2.13 1.685 3.893 3.808 3.893 2.123 0 3.807-1.763 3.807-3.893 0 2.13 1.685 3.893 3.808 3.893 2.123 0 3.807-1.763 3.807-3.893 0 2.13 1.685 3.893 3.808 3.893 2.123 0 3.807-1.763 3.807-3.893 0 2.13 1.685 3.893 3.808 3.893 2.123 0 3.807-1.763 3.807-3.893 0 2.13 1.685 3.893 3.808 3.893 2.123 0 3.807-1.763 3.807-3.893 0 2.13 1.684 3.893 3.808 3.893 2.123 0 3.807-1.763 3.807-3.893 0 2.13 1.684 3.893 3.808 3.893 2.123 0 3.807-1.763 3.807-3.893v-.147l-4.759-12.633h-44.152l-4.76 12.633v.147h.366zm10.544-12.853l-2.855 12.926m7.615 0l1.757-12.926m5.931 12.926l.44-12.926m19.622 0l2.856 12.926m-7.615 0l-1.757-12.926m-5.931 12.926l-.44-12.926" stroke="#5C5C5C" stroke-miterlimit="10"/><path d="M165.699 148.802v19.831h-46.568v-19.831" stroke="#5C5C5C" stroke-miterlimit="10"/><path d="M139.999 168.633v-11.825c0-3.085-3.149-6.61-6.956-6.61-3.808 0-6.956 3.452-6.956 6.61v11.825m0-11.825h13.912m-2.417-4.994l-4.54 4.994m-4.612-4.994l4.612 4.994m0 0v11.825m24.969-5.656H147.76a.97.97 0 01-.952-.954v-6.464a.97.97 0 01.952-.954h10.251a.97.97 0 01.952.954v6.464a.97.97 0 01-.952.954zm-5.126-8.446v8.153m-6.15-4.04h12.228m-16.914-34.813c3.194 0 5.784-.56 5.784-1.249 0-.69-2.59-1.249-5.784-1.249-3.195 0-5.785.559-5.785 1.249 0 .689 2.59 1.249 5.785 1.249z" stroke="#5C5C5C" stroke-miterlimit="10"/><path d="M147.76 122.582c0 2.424-.732 4.554-1.977 6.023-.22.293-1.318 1.175-3.808 1.175-2.489 0-3.587-.955-3.807-1.175-1.245-1.469-1.977-3.599-1.977-6.023" stroke="#5C5C5C" stroke-miterlimit="10"/><path d="M147.687 124.565c.073-.073.732-1.102 1.903-1.175 1.099 0 2.124.734 2.27 1.689.147.881-.659 1.689-1.025 1.983-1.684 1.543-4.1 1.249-4.759 1.175" stroke="#5C5C5C" stroke-miterlimit="10"/><path d="M147.54 125.079c.659-.661 1.538-.808 2.197-.441.073 0 .659.368.732.955.147 1.028-1.391 1.91-1.757 2.13a4.536 4.536 0 01-2.709.588m-4.174-6.537c.293-.367.732-.955.659-1.616-.073-2.056-3.807-2.864-3.734-3.966.073-.514.952-1.175 4.613-1.763-.879.441-1.611.955-1.538 1.469.073 1.249 4.247 1.322 4.467 2.571.146.661-.879 1.689-4.467 3.305z" stroke="#5C5C5C" stroke-miterlimit="10"/><path d="M151.787 124.859h1.245a3.677 3.677 0 013.661 3.672c0 1.983-1.611 3.672-3.661 3.672h-21.527a3.677 3.677 0 01-3.661-3.672c0-1.983 1.611-3.672 3.661-3.672h4.979" stroke="#5C5C5C" stroke-miterlimit="10"/><path d="M82.08 142.486v1.689a.657.657 0 01-.658.661H54.183a.657.657 0 01-.658-.661v-1.689l1.684-6.17h25.114l1.758 6.17z" fill="#47A8A5"/><path d="M81.495 157.322v.955c0 .22-.22.441-.44.441H54.624c-.22 0-.44-.221-.44-.441v-.955c0-.22.22-.441.44-.441h26.432c.22 0 .439.221.439.441zm0-29.232v.661a.814.814 0 01-.805.808H38.44a.814.814 0 01-.805-.808v-.661c0-.44.366-.808.805-.808h42.25c.439 0 .805.368.805.808zm0-18.214v2.497c0 .294-.22.514-.44.514H38.003c-.22-.073-.44-.294-.44-.514v-2.497c0-.294.22-.588.586-.588h42.833c.293 0 .513.294.513.588z" fill="#FFCB05"/><path d="M80.397 158.791H55.209v9.034h25.188v-9.034z" fill="#F89C52"/><path d="M80.397 144.836H55.209v12.119h25.188v-12.119z" fill="#fff"/><path d="M80.397 129.559H38.734v5.509h41.663v-5.509z" fill="#F89C52"/><path d="M74.978 118.616v2.277h-3.66v-3.232h2.635c.586 0 1.025.441 1.025.955zm-3.588 5.508v-3.231h3.663v2.276a.97.97 0 01-.952.955h-2.71zm-3.44-3.231v-2.277a.97.97 0 01.951-.955h2.416v3.232H67.95z" fill="#fff"/><path d="M71.39 124.124h-2.416a.97.97 0 01-.952-.955v-2.276h3.442v3.231h-.073zm-8.273-5.508v2.277h-3.588v-3.232h2.636c.512 0 .952.441.952.955zm0 2.277v2.276a.97.97 0 01-.952.955h-2.636v-3.231h3.588zm-6.077-3.232h2.415v3.232h-3.441v-2.277c.073-.514.513-.955 1.025-.955zm-.953 3.232h3.442v3.231h-2.417a.97.97 0 01-.952-.955v-2.276h-.073z" fill="#fff"/><path d="M80.397 135.141h.512c.293 0 .586.294.586.588s-.293.587-.586.587H38.148a.578.578 0 01-.586-.587c0-.294.22-.588.586-.588h42.249z" fill="#FFCB05"/><path d="M55.209 158.791v9.034h-2.197v-9.475h1.172c0 .221.22.441.439.441h.586z" fill="#F89C52"/><path d="M53.085 158.277v-10.503a.657.657 0 00-.659-.661h-10.91a.657.657 0 00-.659.661v19.977h-2.196v-31.508h16.548l-1.684 6.169v1.69c0 .367.292.661.659.661h1.025v12.118h-.586c-.22 0-.44.221-.44.441v.955h-1.098zm0-14.616v-3.966c0-.661-.512-1.175-1.171-1.175h-9.885c-.66 0-1.172.514-1.172 1.175v3.966c0 .661.513 1.175 1.172 1.175h9.885c.659 0 1.171-.587 1.171-1.175z" fill="#F89C52"/><path d="M40.857 143.661v-3.966c0-.661.513-1.175 1.172-1.175h9.885c.659 0 1.171.514 1.171 1.175v3.966c0 .661-.512 1.175-1.171 1.175h-9.885c-.66 0-1.172-.587-1.172-1.175zm3.003 5.288h6.223c.66 0 1.172.514 1.172 1.175v6.243c0 .661-.513 1.175-1.172 1.175H43.86a1.158 1.158 0 01-1.171-1.175v-6.243c0-.661.512-1.175 1.171-1.175zm7.395-30.333v2.277h-3.661v-3.232h2.636c.585 0 1.025.441 1.025.955zm0 2.277v2.276a.97.97 0 01-.952.955h-2.636v-3.231h3.588z" fill="#fff"/><path d="M50.083 148.949H43.86c-.659 0-1.171.514-1.171 1.175v6.243c0 .661.512 1.175 1.171 1.175h6.224c.66 0 1.172-.514 1.172-1.175v-6.243c0-.661-.513-1.175-1.172-1.175zm3.002 18.582v.22H40.857v-19.977c0-.367.293-.661.66-.661h10.836c.366 0 .659.294.659.661v19.757h.073z" fill="#47A8A5"/><path d="M44.225 120.893v-2.277c0-.514.44-.955.952-.955h2.417v3.232h-3.369zm0 2.276v-2.276h3.442v3.231H45.25c-.586 0-1.026-.44-1.026-.955z" fill="#fff"/><path d="M51.255 123.169v-4.553a.971.971 0 00-.951-.955H45.25a.971.971 0 00-.952.955v4.553c0 .515.44.955.952.955h5.053a.97.97 0 00.951-.955zm-12.52-9.694a.579.579 0 00-.586-.588h-.147 43.054-.073a.578.578 0 00-.586.588v13.807H38.735v-13.807zm32.656 4.186h-2.416a.971.971 0 00-.952.955v4.553c0 .515.44.955.952.955h5.052a.97.97 0 00.952-.955v-4.553a.971.971 0 00-.952-.955h-2.636zm-11.862 0h-2.416a.971.971 0 00-.952.955v4.553c0 .515.44.955.952.955h5.052a.97.97 0 00.952-.955v-4.553a.971.971 0 00-.952-.955H59.53z" fill="#F89C52"/><path d="M37.855 168.633v-31.509m16.548 8.52v12.119m26.287 1.836v-1.836H53.816c-.22 0-.439.22-.439.44v.955c0 .221.22.441.44.441h.585v9.034m26.8-25.339l-1.684-6.17H54.403l-1.684 6.17v1.689c0 .367.293.661.66.661h27.164a.657.657 0 00.66-.661v-1.689z" stroke="#5C5C5C" stroke-miterlimit="10"/><path d="M79.518 137.124h.586c.293 0 .585-.294.585-.587 0-.294-.292-.588-.585-.588h-.586v-5.508h.293c.44 0 .805-.368.805-.808v-.661a.814.814 0 00-.805-.808h-.293v-13.808c0-.294.22-.588.586-.588.293 0 .585-.22.585-.587v-2.497a.579.579 0 00-.585-.588H37.27a.578.578 0 00-.586.588v2.497c0 .294.22.587.586.587.292 0 .585.221.585.588v13.808h-.293a.814.814 0 00-.805.808v.661c0 .44.366.808.805.808h.293v5.508h-.585c-.293 0-.586.294-.586.588 0 .293.293.587.586.587h.585v31.509h41.663v-9.034h.659c.22 0 .44-.22.44-.441v-.955c0-.22-.22-.44-.44-.44h-.659v-12.119" stroke="#5C5C5C" stroke-miterlimit="10"/><path d="M50.45 119.497v4.554c0 .514-.44.955-.953.955h-5.125a.971.971 0 01-.952-.955v-4.554c0-.514.44-.955.952-.955h5.125c.513-.073.952.368.952.955zm-7.03 2.277h6.81m-3.442 3.232v-6.537m15.524 1.029v4.553c0 .514-.44.955-.952.955h-5.126a.971.971 0 01-.952-.955v-4.553a.97.97 0 01.952-.955h5.126c.512-.074.952.367.952.955zm-7.103 2.276h6.882m-3.441 3.232v-6.537m15.45 1.028v4.554c0 .514-.44.955-.952.955h-5.126a.971.971 0 01-.952-.955v-4.554c0-.514.44-.955.952-.955h5.126c.586-.073.952.368.952.955zm-7.03 2.277h6.883m-3.441 3.232v-6.537m-19.477 27.175H41.15a1.158 1.158 0 01-1.171-1.175v-3.966c0-.661.512-1.175 1.171-1.175h9.885c.659 0 1.172.514 1.172 1.175v3.966c0 .661-.513 1.175-1.172 1.175zm-11.056 22.768v-19.757c0-.367.293-.661.659-.661h10.836c.366 0 .66.294.66.661v19.757m-14.279-40.248h41.663m-41.663 2.277h41.663m-42.321-16.673h42.98" stroke="#5C5C5C" stroke-miterlimit="10"/><path d="M49.205 158.424H42.98a1.158 1.158 0 01-1.172-1.175v-6.243a1.16 1.16 0 011.172-1.176h6.224a1.16 1.16 0 011.171 1.176v6.243c.073.661-.512 1.175-1.171 1.175zm-11.35-22.475h41.663m-41.663 1.175h37.49m4.173 22.475H54.403" stroke="#5C5C5C" stroke-miterlimit="10"/><path d="M304.526 146.819v21.153h-1.977v-21.153h1.977zm-1.977 13.074h-9.299v8.079h9.299v-8.079z" fill="#FFCB05"/><path d="M302.549 146.819h-9.299v13.074h9.299v-13.074z" fill="#fff"/><path d="M297.423 126.842c.733 0 1.318.587 1.318 1.322 0 .367-.146.661-.366.955-.219.22-.439.367-.732.367h-5.711c.366-.441.512-.881.512-1.322 0-.441-.219-.882-.585-1.322h5.564z" fill="#FFCB05"/><path d="M266.671 129.486h5.564c.659.734 1.758 1.395 3.222 1.836l-.586.955c-.219.441.147.955.586.808l3.588-.955c.952.147 1.904.147 2.929.147 4.54 0 8.42-1.175 9.811-2.791h5.712c1.537 0 2.929.881 3.588 2.203l5.125 10.577c.073.146.146.293.146.44 0 .955.074 1.91.074 2.865 0 .661-.513 1.248-1.172 1.248H258.69c-.659 0-1.172-.587-1.172-1.248 0-.955.073-1.91.073-2.865 0-.147.073-.294.147-.44l5.125-10.577c.659-1.395 2.05-2.203 3.588-2.203h.22z" fill="#F15C46"/><path d="M293.25 159.893v8.079h-2.05v-21.153h2.05v13.074z" fill="#FFCB05"/><path d="M291.2 146.819h-9.153v21.153h9.153v-21.153zm-2.124-18.582l-3.588-3.892c3.002.44 5.346 1.322 6.371 2.497.366.44.585.881.585 1.322 0 .441-.219.881-.512 1.322-1.391 1.616-5.272 2.791-9.812 2.791-1.025 0-2.05-.074-2.929-.147l8.348-2.277a.706.706 0 001.025 0l.585-.587a.789.789 0 00-.073-1.029z" fill="#fff"/><path d="M289.076 129.266l-.585.587a.707.707 0 01-1.026 0l-6.663-7.198s0-.073-.073-.073a.787.787 0 01.073-1.028l.586-.588c.293-.294.806-.294 1.025.074l3.075 3.378 3.588 3.893c.293.22.293.661 0 .955z" fill="#F89C52"/><path d="M282.12 146.819h-9.152v21.153h9.152v-21.153z" fill="#fff"/><path d="M279.704 124.198l1.025-1.69s0 .074.073.074l6.663 7.198-8.347 2.276-3.588.955c-.439.147-.878-.367-.585-.808l.585-.954 4.174-7.051z" fill="#F89C52"/><path d="M279.704 124.198l-4.174 7.124c-1.464-.514-2.636-1.102-3.221-1.836-.366-.441-.513-.881-.513-1.322 0-.441.22-.882.586-1.322 1.025-1.322 3.807-2.35 7.322-2.644z" fill="#fff"/><path d="M272.968 146.819v21.153h-2.124v-21.153h2.124zm-6.297-19.977h5.564c-.366.44-.585.881-.585 1.322 0 .441.219.881.512 1.322h-5.711c-.659-.074-1.098-.661-1.098-1.322 0-.367.146-.661.366-.955.293-.22.586-.367.952-.367zm4.173 33.051h-9.299v8.079h9.299v-8.079z" fill="#FFCB05"/><path d="M270.844 146.819h-9.299v13.074h9.299v-13.074z" fill="#fff"/><path d="M261.545 159.893v8.079h-1.977v-21.153h1.977v13.074z" fill="#FFCB05"/><path d="M303.574 147.48h-44.958v21.153h44.958V147.48z" stroke="#000" stroke-miterlimit="10"/><path d="M292.298 147.48h-22.406v21.153h22.406V147.48z" stroke="#000" stroke-miterlimit="10"/><path d="M290.175 147.48h-18.232v21.153h18.232V147.48z" stroke="#000" stroke-miterlimit="10"/><path d="M301.597 147.48h-41.004v21.153h41.004V147.48zm-20.502 0v21.153m20.502-8.079h-9.299m-31.705 0h9.299m-4.393-30.407a4.022 4.022 0 00-3.588 2.203l-5.125 10.577c-.073.146-.147.293-.147.44 0 .955-.073 1.91-.073 2.865 0 .661.513 1.248 1.172 1.248h46.568c.659 0 1.172-.587 1.172-1.248 0-.955-.073-1.91-.073-2.865 0-.147-.074-.294-.147-.44l-5.125-10.577c-.659-1.395-2.051-2.203-3.588-2.203" stroke="#000" stroke-miterlimit="10"/><path d="M288.124 129.927l-.585.587c-.293.294-.806.294-1.025-.073l-6.664-7.272c-.292-.293-.292-.807.074-1.028l.585-.587c.293-.294.806-.294 1.026.073l6.663 7.271c.219.221.219.735-.074 1.029zm-8.42-6.831l-5.784 9.842c-.22.441.146.955.585.808l11.935-3.305m-15.156-.294h-5.565a1.315 1.315 0 01-1.318-1.322c0-.735.586-1.322 1.318-1.322h5.565m19.623 0h5.565c.732 0 1.318.587 1.318 1.322 0 .734-.586 1.322-1.318 1.322h-5.565" stroke="#000" stroke-miterlimit="10"/><path d="M284.537 124.932c4.027.588 6.956 2.057 6.956 3.819 0 2.277-4.613 4.113-10.398 4.113-1.025 0-2.05-.073-2.929-.146m-3.661-.735c-2.27-.734-3.807-1.91-3.807-3.158 0-1.91 3.441-3.526 7.981-3.966" stroke="#000" stroke-miterlimit="10"/><path d="M303.574 147.48h-44.958v21.153h44.958V147.48z" stroke="#5C5C5C" stroke-miterlimit="10"/><path d="M292.298 147.48h-22.406v21.153h22.406V147.48z" stroke="#5C5C5C" stroke-miterlimit="10"/><path d="M290.175 147.48h-18.232v21.153h18.232V147.48z" stroke="#5C5C5C" stroke-miterlimit="10"/><path d="M301.597 147.48h-41.004v21.153h41.004V147.48zm-20.502 0v21.153m20.502-8.079h-9.299m-31.705 0h9.299m-4.393-30.407a4.022 4.022 0 00-3.588 2.203l-5.125 10.577c-.073.146-.147.293-.147.44 0 .955-.073 1.91-.073 2.865 0 .661.513 1.248 1.172 1.248h46.568c.659 0 1.172-.587 1.172-1.248 0-.955-.073-1.91-.073-2.865 0-.147-.074-.294-.147-.44l-5.125-10.577c-.659-1.395-2.051-2.203-3.588-2.203" stroke="#5C5C5C" stroke-miterlimit="10"/><path d="M288.124 129.927l-.585.587c-.293.294-.806.294-1.025-.073l-6.664-7.272c-.292-.293-.292-.807.074-1.028l.585-.587c.293-.294.806-.294 1.026.073l6.663 7.271c.219.221.219.735-.074 1.029zm-8.42-6.831l-5.784 9.842c-.22.441.146.955.585.808l11.935-3.305m-15.156-.294h-5.565a1.315 1.315 0 01-1.318-1.322c0-.735.586-1.322 1.318-1.322h5.565m19.623 0h5.565c.732 0 1.318.587 1.318 1.322 0 .734-.586 1.322-1.318 1.322h-5.565" stroke="#5C5C5C" stroke-miterlimit="10"/><path d="M284.537 124.932c4.027.588 6.956 2.057 6.956 3.819 0 2.277-4.613 4.113-10.398 4.113-1.025 0-2.05-.073-2.929-.146m-3.661-.735c-2.27-.734-3.807-1.91-3.807-3.158 0-1.91 3.441-3.526 7.981-3.966" stroke="#5C5C5C" stroke-miterlimit="10"/><path d="M424.535 140.797c1.684.587 3.368 1.248 4.979 1.836.806.294 1.684.147 1.831-.294.146-.514-.44-1.102-1.318-1.395-1.245-.368-2.417-.735-3.661-1.029l.439-.147h18.525v4.26a.735.735 0 01-.732.735H404.18a.735.735 0 01-.732-.735v-4.26h18.305l.366.147-3.661 1.029c-.879.22-1.465.881-1.318 1.322.146.44 1.025.661 1.83.367l5.272-1.91.293.074z" fill="#4EACDB"/><path d="M445.403 137.418v2.424h-10.69v-.808h.146a104.523 104.523 0 014.027-1.542h6.517v-.074z" fill="#4EACDB"/><path d="M445.403 134.994v2.424h-6.517c.952-.367 1.904-.734 3.002-1.175.074-.074.147-.147.147-.22 0-.074-.146-.074-.22-.074 0 0-6.224 1.836-6.224 1.616-.073-.22 6.005-2.35 6.005-2.35.073 0 .146-.147.073-.221h3.734z" fill="#4EACDB"/><path d="M445.403 132.571v2.423h-3.734c0-.073-.147-.073-.22-.073-.073 0-.22.073-.293.073h-2.196c.805-.293 1.61-.587 2.269-.808.074 0 .147-.073.147-.146 0-.074-.147-.147-.22-.074 0 0-2.05.588-3.881 1.102h-1.391c1.684-.735 4.979-1.836 4.979-1.836.074 0 .147-.074.147-.147 0-.074-.073-.074-.147-.074v-.293h4.54v-.147zm0-1.91v1.91h-17.207c.293-.515.732-1.322 1.245-2.204.073-.073.073-.147.146-.22.074-.074.074-.147.147-.22h14.937c.366 0 .732.367.732.734zm-1.098 14.249v23.135h-25.628v-16.966c0-.514-.366-.955-.878-.955h-8.128c-.439 0-.878.441-.878.955v16.966h-3.954V144.91h39.466zm-4.101 9.915c.147-2.277-1.757-4.187-3.954-4.187-2.269 0-4.1 1.91-3.954 4.187v6.39h7.982c-.074-2.13-.074-4.26-.074-6.39zm-10.324 0c.147-2.277-1.757-4.187-3.954-4.187-2.27 0-4.1 1.91-3.954 4.187v6.39h7.981c-.073-2.13-.073-4.26-.073-6.39z" fill="#4EACDB"/><path d="M438.886 137.418c-1.318.514-2.562 1.028-4.027 1.542h-.146c-.22 0-.44-.146-.659-.293-.659-.588-1.538-.882-2.416-.588-.074 0-.147.074-.22.074l-4.54 1.689-.439.147-2.124.808-5.271 1.909c-.879.294-1.685.147-1.831-.367-.146-.514.439-1.102 1.318-1.322l3.661-1.028 2.123-.588 6.883-1.909c.073 0 .147-.074.22-.074.879-.294 1.464-1.028 1.611-1.91 0-.146.073-.293.146-.44.073-.147.147-.221.293-.221 2.709-.734 4.613-1.175 7.322-1.909h.073c.074 0 .147.073.147.073 0 .074 0 .147-.147.147 0 0-3.295 1.175-4.979 1.836-.585.221-1.025.441-1.025.514.073.074 1.172-.146 2.417-.514a85.336 85.336 0 003.88-1.101c.073 0 .22 0 .22.073 0 .074 0 .147-.147.147-.585.22-1.391.514-2.269.808-1.831.661-3.808 1.322-3.735 1.469.074.294 3.735-.955 5.858-1.543.073 0 .22-.073.293-.073.073 0 .146 0 .22.073 0 .074 0 .147-.074.221 0 0-6.077 2.13-6.004 2.35.073.22 6.224-1.616 6.224-1.616.073 0 .146 0 .22.074 0 .073 0 .147-.147.22a33.104 33.104 0 01-2.929 1.322z" fill="#fff"/><path d="M428.123 132.571h12.667v.293h-.073c-2.709.735-4.613 1.176-7.322 1.91-.147.073-.22.147-.293.22h-5.345v-.147l.146-2.203c.147 0 .147 0 .22-.073z" fill="#4EACDB"/><path d="M436.25 150.638c2.27 0 4.101 1.91 3.954 4.187v6.39h-7.981v-6.39c-.073-2.277 1.758-4.187 4.027-4.187z" fill="#fff"/><path d="M434.713 138.96v.808h-7.835l4.54-1.689c.073 0 .146-.073.22-.073.878-.221 1.757 0 2.416.587.219.221.439.367.659.367zm-6.883-3.966h5.345c-.073.147-.146.294-.146.441-.22.881-.806 1.616-1.611 1.91-.073 0-.146.073-.22.073h-6.59v-.734a5.65 5.65 0 002.49-.588c.293-.147.586-.441.659-.808 0-.147.073-.22.073-.294z" fill="#4EACDB"/><path d="M421.094 132.571c-.366-.515-.806-1.322-1.392-2.204-.073-.073-.073-.147-.146-.22-.073-.074-.073-.147-.146-.22-2.124-3.526-2.929-4.628-2.563-5.289.146-.293.732-.807 2.782-.587.22-.441.513-1.028 1.025-1.543 1.465-1.468 3.369-1.468 3.881-1.468.513 0 2.343.073 3.734 1.468.513.515.879 1.102 1.025 1.543 2.051-.22 2.563.22 2.783.587.439.735-.366 1.763-2.563 5.362 0 .073-.073.147-.146.22-.074.074-.074.147-.147.221a83.98 83.98 0 00-1.318 2.203h-.073v.147l-.073.073c0 .661-.073 1.396-.147 2.057v.147c0 .073 0 .147-.073.22l-.366-.073a7.962 7.962 0 00-2.709-.661h-.293c-1.245 0-2.197.367-2.709.661l-.366.073c0-.073-.074-.147-.074-.22v-.147c0-.661-.073-1.396-.146-2.057l-.073-.073.293-.22zm9.006 8.446c.879.22 1.464.881 1.318 1.395-.147.515-1.025.661-1.831.294-1.684-.587-3.368-1.248-4.979-1.836l-.219-.073 2.123-.808c1.172.293 2.343.661 3.588 1.028z" fill="#fff"/><path d="M431.198 137.418l-6.883 1.983a9.654 9.654 0 00-1.391-.367l-5.418-1.542h13.692v-.074z" fill="#4EACDB"/><path d="M425.926 150.638c2.27 0 4.101 1.91 3.954 4.187v6.39h-7.981v-6.39c-.073-2.277 1.758-4.187 4.027-4.187zm1.538-15.497l.366.074c-.146.367-.366.661-.659.808a5.406 5.406 0 01-2.49.587 5.66 5.66 0 01-2.489-.587c-.293-.147-.586-.441-.659-.808l.366-.074a8.01 8.01 0 012.709-.661h.293c1.025 0 1.977.367 2.563.661z" fill="#fff"/><path d="M424.608 136.61v.735h-7.102c-1.172-.368-2.197-1.176-2.782-2.277 0-.074-.074-.074-.074-.147h6.737c0 .073 0 .147.073.22.146.367.366.661.659.808a5.39 5.39 0 002.489.588c-.073.073-.073.073 0 .073-.073 0-.073 0 0 0z" fill="#4EACDB"/><path d="M424.315 139.328l-2.123.587-.366-.147-4.54-1.689a4.67 4.67 0 00-3.588.147c-.732.367-1.537.441-2.269.367-1.025-.073-2.051-.587-2.856-1.322-.805-.734-1.391-1.616-1.391-2.424 0-.22 0-.367.073-.587.293-1.028 1.757-1.616 3.295-1.616.879 0 1.83.22 2.563.661.585.367 1.171.881 1.537 1.542 0 .074.074.074.074.147.585 1.102 1.61 1.91 2.782 2.277l5.418 1.543c.44.293.879.367 1.391.514z" fill="#fff"/><path d="M421.753 139.768h-18.305v-2.423h5.125c.805.661 1.757 1.175 2.856 1.322a4.78 4.78 0 002.269-.368c1.099-.587 2.417-.587 3.588-.146l4.467 1.615zm-.44-4.921v.147h-6.736c-.366-.661-.952-1.175-1.538-1.542-.732-.441-1.684-.661-2.562-.661v-.22h10.544c.073.073.073.147.146.22l.146 2.056zm-.292-2.276h-17.573v-1.91c0-.441.366-.734.732-.734h15.23c.073.073.073.146.146.22.073.073.073.147.147.22.585.882 1.025 1.689 1.318 2.204z" fill="#4EACDB"/><path d="M418.677 151.079v16.966h-9.884v-16.966c0-.514.366-.955.878-.955h8.128c.512 0 .878.441.878.955z" fill="#fff"/><path d="M410.477 132.571v.22c-1.538 0-2.929.588-3.295 1.616-.074.147-.073.367-.073.587h-3.735v-2.423h7.103zm-3.368 2.423c0 .808.585 1.69 1.391 2.424h-5.126v-2.424h3.735z" fill="#4EACDB"/><path d="M426.732 133.379c.293-.588.878-1.543 1.611-2.718 2.269-3.672 3.075-4.774 2.709-5.508-.147-.294-.732-.808-2.783-.588-.219-.441-.512-1.028-1.025-1.542-1.391-1.396-3.221-1.469-3.734-1.469-.513 0-2.416.073-3.881 1.469-.512.514-.878 1.101-1.025 1.542-2.05-.22-2.563.22-2.782.588-.44.734.439 1.836 2.709 5.508.732 1.175 1.245 2.13 1.611 2.718.073.661.073 1.395.146 2.056.073.514.293.955.732 1.175a5.396 5.396 0 002.49.588h.146a5.65 5.65 0 002.49-.588c.439-.22.732-.661.732-1.175-.22-.661-.22-1.322-.146-2.056z" fill="#fff" stroke="#5C5C5C" stroke-miterlimit="10"/><path d="M426.805 133.158h17.427m-41.956 0h17.646m23.138 12.339h-39.466v23.136h39.466v-23.136z" stroke="#5C5C5C" stroke-miterlimit="10"/><path d="M407.548 168.633v-16.966c0-.514.366-.955.878-.955h8.128c.439 0 .879.441.879.955v16.966m11.202-6.831h-7.981v-6.39c-.146-2.276 1.758-4.186 3.954-4.186 2.27 0 4.101 1.91 3.954 4.186.073 2.204.073 4.334.073 6.39zm10.398 0h-7.981v-6.39c-.147-2.276 1.757-4.186 3.954-4.186 2.196 0 4.1 1.91 3.954 4.186.073 2.204.073 4.334.073 6.39z" stroke="#5C5C5C" stroke-miterlimit="10"/><path d="M423.363 137.271s-.073 0 0 0c-1.098 0-1.976-.294-2.489-.587a1.31 1.31 0 01-.732-1.176l-.22-3.084m-1.464-7.786l1.684 6.096m6.224.882c-.586-.441-1.611-1.102-2.929-1.102h-.147a4.338 4.338 0 00-2.929 1.102m3.003 5.655c1.098 0 1.976-.294 2.489-.587a1.31 1.31 0 00.732-1.176l.22-3.084" stroke="#5C5C5C" stroke-miterlimit="10" stroke-linecap="round"/><path d="M426.219 135.729a7.955 7.955 0 00-2.709-.661h-.293c-1.245 0-2.197.367-2.709.661m6.297-2.35c.293-.588.805-1.543 1.538-2.718 2.269-3.672 3.075-4.774 2.709-5.508-.147-.294-.732-.808-2.783-.588-.219-.441-.512-1.028-1.025-1.542-1.391-1.396-3.221-1.469-3.734-1.469-.513 0-2.416.073-3.881 1.469-.512.514-.878 1.101-1.025 1.542-2.05-.22-2.563.22-2.782.588-.44.734.439 1.836 2.709 5.508a33.914 33.914 0 011.538 2.718m8.127-8.741l-1.611 6.096" stroke="#5C5C5C" stroke-miterlimit="10" stroke-linecap="round"/><path d="M418.165 130.514h-15.23a.735.735 0 00-.732.735v13.44c0 .441.366.735.732.735h40.491a.736.736 0 00.732-.735v-13.44a.735.735 0 00-.732-.735h-15.083m-14.938 5.068h6.664m-17.793 0h3.661" stroke="#5C5C5C" stroke-miterlimit="10"/><path d="M440.644 136.83c.073-.073.146-.146.146-.22 0-.073-.146-.073-.22-.073 0 0-6.223 1.836-6.223 1.616-.074-.221 6.004-2.351 6.004-2.351.073-.073.146-.147.146-.22 0-.074-.146-.074-.219-.074-2.051.515-6.078 1.91-6.224 1.616-.073-.294 3.954-1.542 6.004-2.277a.157.157 0 00.146-.146c0-.074-.146-.147-.219-.074 0 0-6.151 1.836-6.224 1.616-.073-.22 6.004-2.35 6.004-2.35.073 0 .146-.074.146-.147 0-.074-.146-.147-.219-.074-2.636.735-4.613 1.175-7.322 1.91-.22.073-.366.367-.44.661-.219.881-.805 1.616-1.611 1.91-.073 0-.146.073-.219.073l-12.667 3.599c-.879.22-1.465.881-1.318 1.322.146.514 1.025.661 1.83.367l12.374-4.554c.074 0 .147-.073.22-.073.879-.294 1.757 0 2.416.588.22.22.513.367.806.293 2.416-1.175 4.32-1.909 6.883-2.938z" stroke="#5C5C5C" stroke-miterlimit="10" stroke-linecap="round"/><path d="M423.071 139.989a9.804 9.804 0 00-1.392-.368h.147l-5.565-1.615c-1.172-.368-2.197-1.175-2.782-2.277 0-.074-.074-.147-.074-.147-.366-.661-.951-1.175-1.537-1.542-2.05-1.249-5.345-.661-5.858.954-.073.147-.073.368-.073.588.073 1.542 2.123 3.525 4.247 3.672a4.771 4.771 0 002.27-.367c1.098-.588 2.416-.588 3.587-.147l4.906 1.836m2.124.808l.439.147-.22-.073c1.684.587 3.368 1.248 4.979 1.836.806.294 1.684.147 1.831-.294.146-.514-.44-1.102-1.318-1.322-1.245-.367-2.416-.734-3.661-1.028" stroke="#5C5C5C" stroke-miterlimit="10" stroke-linecap="round"/><path d="M425.633 140.429h18.598m-41.955 0h18.232m17.134-2.423h6.59m-27.971 0h13.692m-27.677 0h5.052m33.096-2.424h3.808m-6.517 0h2.196m-5.271 0h1.391m-9.446 0h5.419" stroke="#5C5C5C" stroke-miterlimit="10"/><path d="M38.734 109.288c.073-.734.146-1.469.293-2.203" stroke="#DADCEE" stroke-width=".5" stroke-miterlimit="10"/><path d="M39.686 102.678C49.57 45.39 98.189 2.35 154.862.294c60.774-2.277 115.25 43.113 124.696 105.101" stroke="#DADCEE" stroke-width=".5" stroke-miterlimit="10" stroke-dasharray="6.07 6.07"/><path d="M279.924 107.599c.073.734.22 1.469.293 2.203m-74.759 12.633c.147-.955.22-1.983.44-2.938" stroke="#DADCEE" stroke-width=".5" stroke-miterlimit="10"/><path d="M207.142 113.695c6.883-25.853 29.874-44.729 56.307-45.757 29.142-1.102 55.428 19.757 61.652 48.842" stroke="#DADCEE" stroke-width=".5" stroke-miterlimit="10" stroke-dasharray="8.08 8.08"/><path d="M325.614 119.791c.146.955.293 1.91.44 2.938m-175.292-8.153c.073-.367.073-.734.147-1.101" stroke="#DADCEE" stroke-width=".5" stroke-miterlimit="10"/><path d="M151.275 111.271c9.592-58.977 64.801-103.56 129.382-105.763 68.827-2.276 130.333 44.215 139.852 107.379" stroke="#DADCEE" stroke-width=".5" stroke-miterlimit="10" stroke-dasharray="3 3"/><path d="M420.654 113.989c.074.367.074.734.147 1.101m-23.65 8.667c.073-.955.219-1.983.293-2.938" stroke="#DADCEE" stroke-width=".5" stroke-miterlimit="10"/><path d="M398.469 115.017c6.15-28.791 29.141-50.458 55.647-53.469 33.17-3.82 66.631 22.107 71.977 59.565" stroke="#DADCEE" stroke-width=".5" stroke-miterlimit="10" stroke-dasharray="8.03 8.03"/><path d="M526.459 123.977c.073.955.146 1.91.22 2.938" stroke="#DADCEE" stroke-width=".5" stroke-miterlimit="10"/></g><defs><clipPath id="clip0"><path fill="#fff" d="M0 0h569v169H0z"/></clipPath></defs></svg>