<?xml version="1.0" encoding="utf-8"?>
<!-- Generator: Adobe Illustrator 25.2.3, SVG Export Plug-In . SVG Version: 6.00 Build 0)  -->
<svg version="1.1" id="Layer_1" xmlns="http://www.w3.org/2000/svg" xmlns:xlink="http://www.w3.org/1999/xlink" x="0px" y="0px"
	 viewBox="0 0 937.5 200" style="enable-background:new 0 0 937.5 200;" xml:space="preserve">
<style type="text/css">
	.st0{fill:#3A35C0;}
</style>
<path class="st0" d="M33.4,62.2L15.9,48.6C33.2,23.9,61,7,91.4,5.6c1.8-0.1,3.6-0.1,5.4-0.1c29.9,0.4,58.9,16,76,40.5
	c17.6,25.1,22.6,57,12.3,86.2c-10.8,30.7-37.1,53.2-68.8,60.1c-9.2,2-18.8,2.7-28.2,2c-18.1-1.4-35.8-8-50.1-19.1
	c-20.3-15.6-33.6-39.9-35.9-65.4C0.8,95.5,2.9,78.5,16.4,70.7c6.5-3.7,14.3-4.8,21.5-2.8C45.4,70,51.5,75.2,56,81.4
	c2.8,4,4.2,8.8,5,13.5c0.5,3,0.6,6.1,0.7,9.1c0.1,4.7-1.1,9.5,1.4,13.9c5,8.8,16.5,4.5,18.8-4c1.3-4.7,0.5-9.6,0.5-14.3
	c0-5.2,0-10.5-0.3-15.7c-0.2-4.1-0.4-8.6,2.1-12.2c3.2-4.5,8.9-5.8,13.5-2.6c2.7,1.9,4.4,5,4.4,8.2c0,4.1,0.1,8.3,0.1,12.4
	c0.1,6.7,0.1,13.3,0.1,20c0,4.6,2,9.3,6.3,11.4c4.9,2.4,10.8,0.7,13.5-4.1c2.5-4.3,1.8-9.3,1.8-14.1c0-4.2,0-8.5,0-12.7
	c0-5.6,0-11.2,0-16.8l20.9-6.8c0,8.1,0,16.1-0.1,24.2c0,4.2,0,8.4,0,12.5c0,7.6,0.3,14.9-3,22c-2.5,5.4-6.3,10.1-11.2,13.5
	c-4.2,2.9-9.1,4.7-14.2,5.3c-8.9,1-18.3-1.7-24.9-7.9c0.6,0.5-10.3,6-11.3,6.3c-4.1,1.3-8.4,1.8-12.7,1.4
	c-8.6-0.8-16.7-5.1-21.8-12.1c-6.3-8.6-5.9-18.3-6-28.4c-0.1-5.9-2.2-14.1-9.7-14c-1.7,0-3.3,0.6-4.5,1.8c-2.2,2.1-2.6,5.7-2.7,8.6
	c-0.8,29.2,26.6,71,67.6,72.4c34.6,1.9,72.5-21.1,77.5-65.9c3.1-39.3-26-76.7-68.6-78.9C71.2,25.6,45.8,42.9,33.4,62.2z"/>
<path class="st0" d="M249.7,136.7l-23.9-70.5h21.9l15.2,55l14.3-46.9c1.5-4.8,5.9-8.1,10.9-8.1l0,0c4.9,0,9.2,3.2,10.7,7.9
	l14.5,47.1l15-55h20.9l-23.7,70c-1.9,5.5-7,9.2-12.8,9.2l0,0c-5.7,0-10.8-3.6-12.6-9L287,97.7l-12.7,38.8c-1.8,5.4-6.8,9-12.4,9l0,0
	C256.3,145.4,251.5,141.9,249.7,136.7z"/>
<path class="st0" d="M353.9,105.8c0-7.2,1.7-13.8,5.1-19.8s8-10.8,14-14.4s12.9-5.4,20.8-5.4s14.8,1.8,20.8,5.4s10.6,8.4,14,14.4
	s5.1,12.6,5.1,19.8c0,7.2-1.7,13.8-5.1,19.8s-8,10.8-14,14.5c-6,3.6-12.9,5.5-20.8,5.5s-14.8-1.8-20.8-5.5c-6-3.6-10.6-8.5-14-14.5
	C355.6,119.5,353.9,112.9,353.9,105.8z M393.7,129.3c4.7,0,8.7-1.2,11.8-3.6c3.1-2.4,5.4-5.5,7-9.1c1.5-3.6,2.3-7.2,2.3-10.8
	c0-3.6-0.8-7.2-2.3-10.8c-1.5-3.6-3.8-6.6-7-9c-3.1-2.4-7-3.6-11.8-3.6c-4.7,0-8.7,1.2-11.8,3.6c-3.1,2.4-5.4,5.4-7,9
	c-1.5,3.6-2.3,7.2-2.3,10.8c0,3.6,0.8,7.2,2.3,10.8c1.5,3.6,3.8,6.7,7,9.1C385.1,128.1,389,129.3,393.7,129.3z"/>
<path class="st0" d="M454.1,145.4L454,73.9l19.7-7.5v9.9c1.2-1.6,2.9-3.2,5-5c2.1-1.7,4.7-3.3,7.8-4.6c3.1-1.3,6.8-1.9,11.1-1.9
	c1.9,0,3.6,0.1,5.1,0.3c1.5,0.2,3.1,0.6,4.6,1.2L503.2,85c-2.7-1-5.7-1.5-9.1-1.5c-5.5,0-10.2,1.7-14.2,5.2c-3.9,3.5-5.9,8.2-5.9,14
	v42.7H454.1z"/>
<path class="st0" d="M606.1,134l11.2-12.1c2.3,2.3,5.2,4.2,8.7,5.7c3.5,1.5,7.5,2.3,12,2.3c4,0,7.2-0.6,9.6-1.7
	c2.4-1.1,3.6-2.8,3.6-5.1c0-1.5-0.4-2.8-1.3-3.9c-0.9-1.1-2.7-2.2-5.3-3.3c-2.6-1.1-6.7-2.3-12.1-3.5c-3.3-0.8-6.7-2.1-10.4-3.8
	c-3.7-1.7-6.8-4.1-9.4-7.2c-2.6-3.1-3.9-7-3.9-11.7c0-4.9,1.5-9.1,4.5-12.6s6.8-6.1,11.5-7.9s9.5-2.7,14.4-2.7
	c6.5,0,12.1,0.7,16.7,2c4.6,1.4,8.7,3.4,12.3,6.1l-9.6,13.1c-2-1.5-4.6-2.8-8-4c-3.3-1.2-7.1-1.8-11.4-1.8c-4.3,0-7.4,0.7-9.1,2
	c-1.8,1.3-2.7,2.9-2.7,4.8c0,2.3,1.4,4.1,4.3,5.4c2.9,1.3,7.4,2.7,13.5,4.2c7.5,1.7,13.4,4.3,17.9,7.8s6.7,8.8,6.7,16
	c0,4.7-1.4,8.8-4.3,12.4c-2.9,3.5-6.7,6.2-11.5,8.1c-4.8,1.9-10.1,2.8-15.8,2.8c-6.8,0-13-1-18.7-2.9
	C614,140.6,609.5,137.7,606.1,134z"/>
<path class="st0" d="M681.4,134l11.2-12.1c2.3,2.3,5.2,4.2,8.7,5.7c3.5,1.5,7.5,2.3,12,2.3c4,0,7.2-0.6,9.6-1.7
	c2.4-1.1,3.6-2.8,3.6-5.1c0-1.5-0.4-2.8-1.3-3.9c-0.9-1.1-2.7-2.2-5.3-3.3c-2.6-1.1-6.7-2.3-12.1-3.5c-3.3-0.8-6.7-2.1-10.4-3.8
	c-3.7-1.7-6.8-4.1-9.4-7.2c-2.6-3.1-3.9-7-3.9-11.7c0-4.9,1.5-9.1,4.5-12.6s6.8-6.1,11.5-7.9s9.5-2.7,14.4-2.7
	c6.5,0,12.1,0.7,16.7,2c4.6,1.4,8.7,3.4,12.3,6.1L734,87.8c-2-1.5-4.6-2.8-8-4c-3.3-1.2-7.1-1.8-11.4-1.8c-4.3,0-7.4,0.7-9.1,2
	c-1.8,1.3-2.7,2.9-2.7,4.8c0,2.3,1.4,4.1,4.3,5.4c2.9,1.3,7.4,2.7,13.5,4.2c7.5,1.7,13.4,4.3,17.9,7.8s6.7,8.8,6.7,16
	c0,4.7-1.4,8.8-4.3,12.4c-2.9,3.5-6.7,6.2-11.5,8.1c-4.8,1.9-10.1,2.8-15.8,2.8c-6.8,0-13-1-18.7-2.9
	C689.2,140.6,684.8,137.7,681.4,134z"/>
<path class="st0" d="M862.8,145V75.6l18.9-7.3l0.1,8.6c2-2.2,4.8-4.4,8.5-6.8c3.7-2.3,8.6-3.5,14.6-3.5c9.5,0,16.8,2.9,21.9,8.6
	c5.1,5.7,7.6,13.5,7.6,23.2V145H915V98.5c0-4.8-1.3-8.6-4-11.3c-2.7-2.7-6.1-4.1-10.4-4.1c-5.4,0-9.8,2-13.3,5.9s-5.2,8.7-5.2,14.4
	V145H862.8z"/>
<path class="st0" d="M593.6,66.3h-22.5L550,95.5c-5.8,7.8-4.3,15.4,0.8,22.1l21.8,27.8h23.7l-32.9-40.2L593.6,66.3z"/>
<polygon class="st0" points="538,40.2 518.2,46.8 518.2,145.4 538,145.4 538,117.4 538,94.3 "/>
<path class="st0" d="M763.9,105.8c0-7.2,1.7-13.8,5.1-19.8c3.4-6,8-10.8,14-14.4s12.9-5.4,20.8-5.4c7.9,0,14.8,1.8,20.8,5.4
	s10.6,8.4,14,14.4s5.1,12.6,5.1,19.8c0,7.2-1.7,13.8-5.1,19.8c-3.4,6-8,10.8-14,14.5c-6,3.6-12.9,5.5-20.8,5.5
	c-7.9,0-14.8-1.8-20.8-5.5c-6-3.6-10.6-8.5-14-14.5C765.6,119.5,763.9,112.9,763.9,105.8z M803.7,129.3c4.7,0,8.7-1.2,11.8-3.6
	s5.4-5.5,7-9.1c1.5-3.6,2.3-7.2,2.3-10.8c0-3.6-0.8-7.2-2.3-10.8c-1.5-3.6-3.8-6.6-7-9c-3.1-2.4-7-3.6-11.8-3.6
	c-4.7,0-8.7,1.2-11.8,3.6s-5.4,5.4-7,9c-1.5,3.6-2.3,7.2-2.3,10.8c0,3.6,0.8,7.2,2.3,10.8c1.5,3.6,3.8,6.7,7,9.1
	C795.1,128.1,799,129.3,803.7,129.3z"/>
</svg>
