<?xml version="1.0" encoding="utf-8"?>
<!-- Generator: Adobe Illustrator 25.2.3, SVG Export Plug-In . SVG Version: 6.00 Build 0)  -->
<svg version="1.1" id="Layer_1" xmlns="http://www.w3.org/2000/svg" xmlns:xlink="http://www.w3.org/1999/xlink" x="0px" y="0px"
	 viewBox="0 0 27.8 28" style="enable-background:new 0 0 27.8 28;" xml:space="preserve">
<style type="text/css">
	.st0{fill:#3A35C0;}
</style>
<path class="st0" d="M4.8,8.5l-2.5-2c2.5-3.6,6.5-6,11-6.2c0.3,0,0.5,0,0.8,0c4.3,0.1,8.6,2.3,11,5.9c2.6,3.6,3.3,8.3,1.8,12.5
	c-1.6,4.5-5.4,7.7-10,8.7c-1.3,0.3-2.7,0.4-4.1,0.3c-2.6-0.2-5.2-1.2-7.3-2.8c-2.9-2.3-4.9-5.8-5.2-9.5c-0.2-2.1,0.1-4.5,2.1-5.7
	C3.3,9.2,4.4,9,5.5,9.3c1.1,0.3,2,1.1,2.6,2c0.4,0.6,0.6,1.3,0.7,2c0.1,0.4,0.1,0.9,0.1,1.3c0,0.7-0.2,1.4,0.2,2
	c0.7,1.3,2.4,0.7,2.7-0.6c0.2-0.7,0.1-1.4,0.1-2.1c0-0.8,0-1.5,0-2.3c0-0.6-0.1-1.2,0.3-1.8c0.5-0.7,1.3-0.8,2-0.4
	c0.4,0.3,0.6,0.7,0.6,1.2c0,0.6,0,1.2,0,1.8c0,1,0,1.9,0,2.9c0,0.7,0.3,1.4,0.9,1.7c0.7,0.3,1.6,0.1,2-0.6c0.4-0.6,0.3-1.4,0.3-2
	c0-0.6,0-1.2,0-1.8c0-0.8,0-1.6,0-2.4l3-1c0,1.2,0,2.3,0,3.5c0,0.6,0,1.2,0,1.8c0,1.1,0,2.2-0.4,3.2c-0.4,0.8-0.9,1.5-1.6,2
	c-0.6,0.4-1.3,0.7-2.1,0.8c-1.3,0.1-2.7-0.2-3.6-1.1c0.1,0.1-1.5,0.9-1.6,0.9c-0.6,0.2-1.2,0.3-1.8,0.2c-1.2-0.1-2.4-0.7-3.2-1.8
	c-0.9-1.2-0.9-2.7-0.9-4.1c0-0.9-0.3-2-1.4-2c-0.2,0-0.5,0.1-0.7,0.3c-0.3,0.3-0.4,0.8-0.4,1.2c-0.1,4.2,3.9,10.3,9.8,10.5
	c5,0.3,10.5-3.1,11.3-9.6c0.5-5.7-3.8-11.1-10-11.5C10.3,3.2,6.6,5.7,4.8,8.5z"/>
</svg>
